P1
#Created by UTFSM ELO329
229 197
0000000000000000000000000000000000000000000000000000000000000000000000000000000000000000000000000000000000000000000000000000000000000000000000000000000000000000000000000000000000000000000000000000000000000000000000000000000000000
0001111111111111111111111111111111111111111111111111111111111111111111111111111111111111111111111111111111111111111111111111111111111111111111111111111111111111111111111111111111111111111111111111111111111111111111111111111111000
0111111111111111111111111111111111111111111111111111111111111111111111111111111111111111111111111111111111111111111111111111111111111111111111111111111111111111111111111111111111111111111111111111111111111111111111111111111111110
0111111111111111111111111111111111111111111111111111111111111111111111111111111111111111111111111111111111111111111111111111111111111111111111111111111111111111111111111111111111111111111111111111111111111111111111111111111111110
0111000000000000000000000000000000000000000000000000000000000000000000000000000000000000000000000000000000000000000000000000000001110000000000000000000000000000000000000000000000000000000000000000000000000000000000000000000001110
0111000000000000000000000000000000000000000000000000000000000000000000000000000000000000000000000000000000000000000000000000000001110000000000000000000000000000000000000000000000000000000000000000000000000000000000000000000001110
0111000000000000000000000000000000000000000000000000000000000000000000000000000000000000000000000000000000000000000000000000000001110000000000000000000000000000000000000000000000000000000000000000000000000000000000000000000001110
0111000000000000000000000000000000000000000000000000000000000000000000000000000000000000000000000000000000000000000000000000000001110000000000000000000000000000000000000000000000000000000000000000000000000000000000000000000001110
0111000000000000000000000000000000000000000000000000000000000000000000000000000000000000000000000000000000000000000000000000000001110000000000000000000000000000000000000000000000000000000000000000000000000000000000000000000001110
0111000000000000000000000000000000000000000000000000000000000000000000000000000000000000000000000000000000000000000000000000000001110000000000000000000000000000000000000000000000000000000000000000000000000000000000000000000001110
0111000000000000000000000000000000000000000000000000000000000000000000000000000000000000000000000000000000000000000000000000000001110000000000000000000000000000000000000000000000000000000000000000000000000000000000000000000001110
0111000000000000000000000000000000000000000000000000000000000000000000000000000000000000000000000000000000000000000000000000000001110000000000000000000000000000000000000000000000000000000000000000000000000000000000000000000001110
0111000000000000000000000000000000000000000000000000000000000000000000000000000000000000000000000000000000000000000000000000000001110000000000000000000000000000000000000000000000000000000000000000000000000000000000000000000001110
0111000000000000000000000000000000000000000000000000000000000000000000000000000000000000000000000000000000000000000000000000000001110000000000000000000000000000000000000000000000000000000000000000000000000000000000000000000001110
0111000000000000000000000000000000000000000000000000000000000000000000000000000000000000000000000000000000000000000000000000000001110000000000000000000000000000000000000000000000000000000000000000000000000000000000000000000001110
0111000000000000000000000000000000000000000000000000000000000000000000000000000000000000000000000000000000000000000000000000000001110000000000000000000000000000000000000000000000000000000000000000000000000000000000000000000001110
0111000000000000000000000000000000000000000000000000000000000000000000000000000000000000000000000000000000000000000000000000000001110000000000000000000000000000000000000000000000000000000000000000000000000000000000000000000001110
0111000000000000000000000000000000000000000000000000000000000000000000000000000000000000000000000000000000000000000000000000000001110000000000000000000000000000000000000000000000000000000000000000000000000000000000000000000001110
0111000000000000000000000000000000000000000000000000000000000000000000000000000000000000000000000000000000000000000000000000000001110000000000000000000000000000000000000000000000000000000000000000000000000000000000000000000001110
0111000000000000000000000000000000000000000000000000000000000000000000000000000000000000000000000000000000000000000000000000000001110000000000000000000000000000000000000000000000000000000000000000000000000000000000000000000001110
0111000000000000000000000000000000000000000000000000000000000000000000000000000000000000000000000000000000000000000000000000000001110000000000000000000000000000000000000000000000000000000000000000000000000000000000000000000001110
0111000000000000000000000000000000000000000000000000000000000000000000000000000000000000000000000000000000000000000000000000000001110000000000000000000000000000000000000000000000000000000000000000000000000000000000000000000001110
0111000000000000000000000000000000000000000000000000000000000000000000000000000000000000000000000000000000000000000000000000000001110000000000000000000000000000000000000000000000000000000000000000000000000000000000000000000001110
0111000000000000000000000000000000000000000000000000000000000000000000000000000000000000000000000000000000000000000000000000000001110000000000000000000000000000000000000000000000000000000000000000000000000000000000000000000001110
0111000000000000000000000000000000000000000000000000000000000000000000000000000000000000000000000000000000000000000000000000000001110000000000000000000000000000000000000000000000000000000000000000000000000000000000000000000001110
0111000000000000000000000000000000000000000000000000000000000000000000000000000000000000000000000000000000000000000000000000000001110000000000000000000000000000000000000000000000000000000000000000000000000000000000000000000001110
0111000000000000000000000000000000000000000000000000000000000000000000000000000000000000000000000000000000000000000000000000000001110000000000000000000000000000000000000000000000000000000000000000000000000000000000000000000001110
0111000000000000000000000000000000000000000000000000000000000000000000000000000000000000000000000000000000000000000000000000000001110000000000000000000000000000000000000000000000000000000000000000000000000000000000000000000001110
0111000000000000000000000000000000000000000000000000000000000000000000000000000000000000000000000000000000000000000000000000000001110000000000000000000000000000000000000000000000000000000000000000000000000000000000000000000001110
0111000000000000000000000000000000000000000000000000000000000000000000000000000000000000000000000000000000000000000000000000000001110000000000000000000000000000000000000000000000000000000000000000000000000000000000000000000001110
0111000000000000000000000000000000000000000000000000000000000000000000000000000000000000000000000000000000000000000000000000000001110000000000000000000000000000000000000000000000000000000000000000000000000000000000000000000001110
0111000000000000000000000000000000000000000000000000000000000000000000000000000000000000000000000000000000000000000000000000000001110000000000000000000000000000000000000000000000000000000000000000000000000000000000000000000001110
0111000000000000000000000000000001111111111111111111111111111111111110000000000000000000000000000000000000000000000000000000000001110000000000000000000000000000000000000000000000000000000000000000000000000000000000000000000001110
0111000000000000000000000000000001011111111111111111111111111111110010000000000000000000000000000000000000000000000000000000000001110000000000000000000000000000111110000000000000000000000000000001111111111111111111111111111111110
0010000000000000000000000000000001111111111111111111111111111111111110000000000000000000000000000010000000000000000000000000000001110000000000000000000000000000101010000000000000000000000000000011111111111111111111111111111111110
0000000000000000000000000000000001011111111111111111111111111111111110000000000000000000000000000111000000000000000000000000000001110000000000000000000000000000111110000000000000000000000000000001111111111111111111111111111111110
0000000000000000000000000000000001000000000000000000000000000000011110000000000000000000000000000111000000000000000000000000000001110000000000000000000000000000111110000000000000000000000000000000000000000000000000000000000001110
0000000000000000000000000000000001100000000000000000000000000000011110000000000000000000000000000111000000000000000000000000000001110000000000000000000000000000111110000000000000000000000000000000000000000000000000000000000001110
0000000000000000000000000000000000111111111111111111111111111110011110000000000000000000000000000111000000000000000000000000000001110000000000000000000000000000111110000000000000000000000000000000000000000000000000000000000001110
0000000000000000000000000000000000000000000000000000000000000010011110000000000000000000000000000111000000000000000000000000000001110000000000000000000000000000111110000000000000000000000000000000000000000000000000000000000001110
0001111111111111111111111111111111111111111111111111111111111110011110000000000000000000000000000111000000000000000000000000000001110000000000000000000000000000111110000000000000000000000000000000000000000000000000000000000001110
0000000000000000000000000000000000000000000000000000000000000000011110000000000000000000000000000111000000000000000000000000000001110000000000000000000000000000111110000000000000000000000000000000000000000000000000000000000001110
0000000000000000000000000000000000000000000000000000000000000000011110000000000000000000000000000111000000000000000000000000000001110000000000000000000000000000111110000000000000000000000000000000000000000000000000000000000001110
0000000000000000000000000000000000000000000000000000000000000000011110000000000000000000000000000111000000000000000000000000000001110000000000000000000000000000111110000000000000000000000000000000000000000000000000000000000001110
0000000000000000000000000000000000000000000000000000000000000000011110000000000000000000000000000111000000000000000000000000000001110000000000000000000000000000111110000000000000000000000000000000000000000000000000000000000001110
0000000000000000000000000000000000000000000000000000000000000000011110000000000000000000000000000111000000000000000000000000000001110000000000000000000000000000111110000000000000000000000000000000000000000000000000000000000001110
0000000000000000000000000000000000000000000000000000000000000000011110000000000000000000000000000111000000000000000000000000000001110000000000000000000000000000111110000000000000000000000000000000000000000000000000000000000001110
0000000000000000000000000000000000000000000000000000000000000000011110000000000000000000000000000111000000000000000000000000000001110000000000000000000000000000111110000000000000000000000000000000000000000000000000000000000001110
0000000000000000000000000000000000000000000000000000000000000000011110000000000000000000000000000111000000000000000000000000000001110000000000000000000000000000111110000000000000000000000000000000000000000000000000000000000001110
0000000000000000000000000000000000000000000000000000000000000000011110000000000000000000000000000111000000000000000000000000000001110000000000000000000000000000111110000000000000000000000000000000000000000000000000000000000001110
0000000000000000000000000000000000000000000000000000000000000000011110000000000000000000000000000111000000000000000000000000000001110000000000000000000000000000111110000000000000000000000000000000000000000000000000000000000001110
0000000000000000000000000000000000000000000000000000000000000000011110000000000000000000000000000111000000000000000000000000000001110000000000000000000000000000111110000000000000000000000000000000000000000000000000000000000001110
0000000000000000000000000000000000000000000000000000000000000000011110000000000000000000000000000111000000000000000000000000000001110000000000000000000000000000111110000000000000000000000000000000000000000000000000000000000001110
0000000000000000000000000000000000000000000000000000000000000000011110000000000000000000000000000111000000000000000000000000000001110000000000000000000000000000111110000000000000000000000000000000000000000000000000000000000001110
0000000000000000000000000000000000000000000000000000000000000000011110000000000000000000000000000111000000000000000000000000000001110000000000000000000000000000111110000000000000000000000000000000000000000000000000000000000001110
0000000000000000000000000000000000000000000000000000000000000000011110000000000000000000000000000111000000000000000000000000000001110000000000000000000000000000111110000000000000000000000000000000000000000000000000000000000001110
0000000000000000000000000000000000000000000000000000000000000000011110000000000000000000000000000111000000000000000000000000000001110000000000000000000000000000111110000000000000000000000000000000000000000000000000000000000001110
0000000000000000000000000000000000000000000000000000000000000000011110000000000000000000000000000111000000000000000000000000000001110000000000000000000000000000111110000000000000000000000000000000000000000000000000000000000001110
0000000000000000000000000000000000000000000000000000000000000000011110000000000000000000000000000111000000000000000000000000000001110000000000000000000000000000111110000000000000000000000000000000000000000000000000000000000001110
0000000000000000000000000000000000000000000000000000000000000000011110000000000000000000000000000111000000000000000000000000000001110000000000000000000000000000111110000000000000000000000000000000000000000000000000000000000001110
0000000000000000000000000000000000000000000000000000000000000000011110000000000000000000000000000111000000000000000000000000000001110000000000000000000000000000111110000000000000000000000000000000000000000000000000000000000001110
0000000000000000000000000000000000000000000000000000000000000000011110000000000000000000000000000111000000000000000000000000000001110000000000000000000000000000111110000000000000000000000000000000000000000000000000000000000001110
0000000000000000000000000000000000000000000000000000000000000000011110000000000000000000000000000111000000000000000000000000000001110000000000000000000000000000111111111111111111111111111111111110000000000000000000000000000001110
0000000000000000000000000000000000000000000000000000000000000000011110000000000000000000000000000111000000000000000000000000000001110000000000000000000000000000111100000000000000000000000000000011000000000000000000000000000001110
0000000000000000000000000000000000000000000000000000000000000000011110000000000000000000000000000111000000000000000000000000000001110000000000000000000000000000111100000000000000000000000000000001000000000000000000000000000001110
0001111111111111111111111111111111111111111111111111111111111111111110000000000000000000000000000111111111111111111111111111111111110000000000000000000000000000111111111111111111111111111111111101000000000000000000000000000001110
0111111111111111111111111111111111111111111111111111111111111111111010000000000000000000000000000011111111111111111111111111111111100000000000000000000000000000111111111111111111111111111111111111000000000000000000000000000001110
0111111111111111111111111111111111111111111111111111111111111111111010000000000000000000000000000001111111111111111111111111111111100000000000000000000000000000111111111111111111111111111111111101000000000000000000000000000001110
0111001111111111111111111111111111111111111111111111111111111111111110000000000000000000000000000000000000000000000000000000000000000000000000000000000000000000111100111111111111111111111111111111000000000000000000000000000001110
0111001000000000000000000000000000000000000000000000000000000000000000000000000000000000000000000000000000000000000000000000000000000000000000000000000000000000111100100000000000000000000000000000000000000000000000000000000001110
0111001000000000000000000000000000000000000000000000000000000000000000000000000000000000000000000000000000000000000000000000000000000000000000000000000000000000111100100000000000000000000000000000000000000000000000000000000001110
0111001000000000000000000000000000000000000000000000000000000000000000000000000000000000000000000000000000000000000000000000000000000000000000000000000000000000111100100000000000000000000000000000000000000000000000000000000001110
0111001000000000000000000000000000000000000000000000000000000000000000000000000000000000000000000000000000000000000000000000000000000000000000000000000000000000111100100000000000000000000000000000000000000000000000000000000001110
0111001000000000000000000000000000000000000000000000000000000000000000000000000000000000000000000000000000000000000000000000000000000000000000000000000000000000111100100000000000000000000000000000000000000000000000000000000001110
0111001000000000000000000000000000000000000000000000000000000000000000000000000000000000000000000000000000000000000000000000000000000000000000000000000000000000111100100000000000000000000000000000000000000000000000000000000001110
0111001000000000000000000000000000000000000000000000000000000000000000000000000000000000000000000000000000000000000000000000000000000000000000000000000000000000111100100000000000000000000000000000000000000000000000000000000001110
0111001000000000000000000000000000000000000000000000000000000000000000000000000000000000000000000000000000000000000000000000000000000000000000000000000000000000111100100000000000000000000000000000000000000000000000000000000001110
0111001000000000000000000000000000000000000000000000000000000000000000000000000000000000000000000000000000000000000000000000000000000000000000000000000000000000111100100000000000000000000000000000000000000000000000000000000001110
0111001000000000000000000000000000000000000000000000000000000000000000000000000000000000000000000000000000000000000000000000000000000000000000000000000000000000111100100000000000000000000000000000000000000000000000000000000001110
0111001000000000000000000000000000000000000000000000000000000000000000000000000000000000000000000000000000000000000000000000000000000000000000000000000000000000111100100000000000000000000000000000000000000000000000000000000001110
0111001000000000000000000000000000000000000000000000000000000000000000000000000000000000000000000000000000000000000000000000000000000000000000000000000000000000111100100000000000000000000000000000000000000000000000000000000001110
0111001000000000000000000000000000000000000000000000000000000000000000000000000000000000000000000000000000000000000000000000000000000000000000000000000000000000111100100000000000000000000000000000000000000000000000000000000001110
0111001000000000000000000000000000000000000000000000000000000000000000000000000000000000000000000000000000000000000000000000000000000000000000000000000000000000111100100000000000000000000000000000000000000000000000000000000001110
0111001000000000000000000000000000000000000000000000000000000000000000000000000000000000000000000000000000000000000000000000000000000000000000000000000000000000111100100000000000000000000000000000000000000000000000000000000001110
0111001000000000000000000000000000000000000000000000000000000000000000000000000000000000000000000000000000000000000000000000000000000000000000000000000000000000111100100000000000000000000000000000000000000000000000000000000001110
0111001000000000000000000000000000000000000000000000000000000000000000000000000000000000000000000000000000000000000000000000000000000000000000000000000000000000111100100000000000000000000000000000000000000000000000000000000001110
0111001000000000000000000000000000000000000000000000000000000000000000000000000000000000000000000000000000000000000000000000000000000000000000000000000000000000111100100000000000000000000000000000000000000000000000000000000001110
0111001000000000000000000000000000000000000000000000000000000000000000000000000000000000000000000000000000000000000000000000000000000000000000000000000000000000111100100000000000000000000000000000000000000000000000000000000001110
0111001000000000000000000000000000000000000000000000000000000000000000000000000000000000000000000000000000000000000000000000000000000000000000000000000000000000111100100000000000000000000000000000000000000000000000000000000001110
0111001000000000000000000000000000000000000000000000000000000000000000000000000000000000000000000000000000000000000000000000000000000000000000000000000000000000111100100000000000000000000000000000000000000000000000000000000001110
0111001000000000000000000000000000000000000000000000000000000000000000000000000000000000000000000000000000000000000000000000000000000000000000000000000000000000111100100000000000000000000000000000000000000000000000000000000001110
0111001000000000000000000000000000000000000000000000000000000000000000000000000000000000000000000000000000000000000000000000000000000000000000000000000000000000111100100000000000000000000000000000000000000000000000000000000001110
0111001000000000000000000000000000000000000000000000000000000000000000000000000000000000000000000000000000000000000000000000000000000000000000000000000000000000111100100000000000000000000000000000000000000000000000000000000001110
0111001000000000000000000000000000000000000000000000000000000000000000000000000000000000000000000000000000000000000000000000000000000000000000000000000000000000111100100000000000000000000000000000000000000000000000000000000001110
0111001000000000000000000000000000000000000000000000000000000000000000000000000000000000000000000000000000000000000000000000000000000000000000000000000000000000111100100000000000000000000000000000000000000000000000000000000001110
0111001000000000000000000000000000000000000000000000000000000000000000000000000000000000000000000000000000000000000000000000000000000000000000000000000000000000111100100000000000000000000000000000000000000000000000000000000001110
0111001000000000000000000000000000000000000000000000000000000000000000000000000000000000000000000111111111111111111111111111111111111000000000000000000000000000111100100000000000000000000000000000000000000000000000000000000001110
0111001000000000000000000000000011111000000000000000000000000000111110000000000000000000000000000101111111111111111111111111111111001000000000000000000000000000111100100000000000000000000000000001111111111111111111111111111111110
0111001000000000000000000000000010101000000000000000000000000000101010000000000000000000000000000111111111111111111111111111111111111000000000000000000000000000111100100000000000000000000000000011111111111111111111111111111111110
0111001000000000000000000000000011111000000000000000000000000000111110000000000000000000000000000101111111111111111111111111111111111000000000000000000000000000111100100000000000000000000000000001111111111111111111111111111111110
0111001000000000000000000000000011111000000000000000000000000000111110000000000000000000000000000100000000000000000000000000000001111000000000000000000000000000111100100000000000000000000000000000000000000000000000000000000001110
0111001000000000000000000000000011111000000000000000000000000000111110000000000000000000000000000110000000000000000000000000000001111000000000000000000000000000111100100000000000000000000000000000000000000000000000000000000001110
0111001000000000000000000000000011111000000000000000000000000000111110000000000000000000000000000011111111111111111111111111111001111000000000000000000000000000111100100000000000000000000000000000000000000000000000000000000001110
0111001000000000000000000000000011111000000000000000000000000000111110000000000000000000000000000000000000000000000000000000001001111000000000000000000000000000111100100000000000000000000000000000000000000000000000000000000001110
0111001000000000000000000000000011111000000000000000000000000000111110000000000000000000000000000000000000000000000000000000001001111000000000000000000000000000111100100000000000000000000000000000000000000000000000000000000001110
0111001000000000000000000000000011111000000000000000000000000000111110000000000000000000000000000000000000000000000000000000001001111000000000000000000000000000111100100000000000000000000000000000000000000000000000000000000001110
0111001000000000000000000000000011111000000000000000000000000000111110000000000000000000000000000000000000000000000000000000001001111000000000000000000000000000111100100000000000000000000000000000000000000000000000000000000001110
0111001000000000000000000000000011111000000000000000000000000000111110000000000000000000000000000000000000000000000000000000001001111000000000000000000000000000111100100000000000000000000000000000000000000000000000000000000001110
0111001000000000000000000000000011111000000000000000000000000000111110000000000000000000000000000000000000000000000000000000001001111000000000000000000000000000111100100000000000000000000000000000000000000000000000000000000001110
0111001000000000000000000000000011111000000000000000000000000000111110000000000000000000000000000000000000000000000000000000001001111000000000000000000000000000111100100000000000000000000000000000000000000000000000000000000001110
0111001000000000000000000000000011111000000000000000000000000000111110000000000000000000000000000000000000000000000000000000001001111000000000000000000000000000111100100000000000000000000000000000000000000000000000000000000001110
0111001000000000000000000000000011111000000000000000000000000000111110000000000000000000000000000000000000000000000000000000001001111000000000000000000000000000111100100000000000000000000000000000000000000000000000000000000001110
0111001000000000000000000000000011111000000000000000000000000000111110000000000000000000000000000000000000000000000000000000001001111000000000000000000000000000111100100000000000000000000000000000000000000000000000000000000001110
0111001000000000000000000000000011111000000000000000000000000000111110000000000000000000000000000000000000000000000000000000001001111000000000000000000000000000111100100000000000000000000000000000000000000000000000000000000001110
0111001000000000000000000000000011111000000000000000000000000000111110000000000000000000000000000000000000000000000000000000001001111000000000000000000000000000111100100000000000000000000000000000000000000000000000000000000001110
0111001000000000000000000000000011111000000000000000000000000000111110000000000000000000000000000000000000000000000000000000001001111000000000000000000000000000111100100000000000000000000000000000000000000000000000000000000001110
0111001000000000000000000000000011111000000000000000000000000000111110000000000000000000000000000000000000000000000000000000001001111000000000000000000000000000111100100000000000000000000000000000000000000000000000000000000001110
0111001000000000000000000000000011111000000000000000000000000000111110000000000000000000000000000000000000000000000000000000001001111000000000000000000000000000111100100000000000000000000000000000000000000000000000000000000001110
0111001000000000000000000000000011111000000000000000000000000000111110000000000000000000000000000000000000000000000000000000001001111000000000000000000000000000111100100000000000000000000000000000000000000000000000000000000001110
0111001000000000000000000000000011111000000000000000000000000000111110000000000000000000000000000000000000000000000000000000001001111000000000000000000000000000111100100000000000000000000000000000000000000000000000000000000001110
0111001000000000000000000000000011111000000000000000000000000000111110000000000000000000000000000000000000000000000000000000001001111000000000000000000000000000111100100000000000000000000000000000000000000000000000000000000001110
0111001000000000000000000000000011111000000000000000000000000000111110000000000000000000000000000000000000000000000000000000001001111000000000000000000000000000111100100000000000000000000000000000000000000000000000000000000001110
0111001000000000000000000000000011111000000000000000000000000000111110000000000000000000000000000000000000000000000000000000001001111000000000000000000000000000111100100000000000000000000000000000000000000000000000000000000001110
0111001000000000000000000000000011111000000000000000000000000000111110000000000000000000000000000000000000000000000000000000001001111000000000000000000000000000111100100000000000000000000000000000000000000000000000000000000001110
0111001000000000000000000000000011111000000000000000000000000000111110000000000000000000000000000000000000000000000000000000001001111000000000000000000000000000111100100000000000000000000000000000000000000000000000000000000001110
0111001000000000000000000000000011111000000000000000000000000000111110000000000000000000000000000000000000000000000000000000001001111000000000000000000000000000111100100000000000000000000000000000000000000000000000000000000001110
0111001000000000000000000000000011111000000000000000000000000000111111111111111111111111111111111110000000000000000000000000001001111000000000000000000000000000111100111111111111111111111111111110000000000000000000000000000001110
0111001000000000000000000000000011111000000000000000000000000000111100000000000000000000000000000011100000000000000000000000001001111000000000000000000000000000111100000000000000000000000000000011100000000000000000000000000001110
0111001000000000000000000000000011111000000000000000000000000000111100000000000000000000000000000000100000000000000000000000001001111000000000000000000000000000111100000000000000000000000000000000100000000000000000000000000001110
0111001000000000000000000000000011111000000000000000000000000000111111111111111111111111111111111100100000000000000000000000001001111000000000000000000000000000111111111111111111111111111111111100100000000000000000000000000001110
0111001000000000000000000000000011111000000000000000000000000000101111111111111111111111111111111111100000000000000000000000001001111000000000000000000000000000111111111111111111111111111111111111100000000000000000000000000001110
0111001000000000000000000000000011111000000000000000000000000000100111111111111111111111111111111111100000000000000000000000001001111000000000000000000000000000111111111111111111111111111111111111100000000000000000000000000001110
0111001000000000000000000000000011111000000000000000000000000000110000000000000000000000000000000111100000000000000000000000001001111000000000000000000000000000111100000000000000000000000000000111100000000000000000000000000001110
0111001000000000000000000000000011111000000000000000000000000000011000000000000000000000000000000111100000000000000000000000001001111000000000000000000000000000111100000000000000000000000000000111100000000000000000000000000001110
0111001000000000000000000000000011111000000000000000000000000000001111111111111111111111111111111111100000000000000000000000001001111000000000000000000000000000111100111111111111111111111111100111100000000000000000000000000001110
0111001000000000000000000000000011111000000000000000000000000000000000000000000000000000000000001111100000000000000000000000001001111000000000000000000000000000111100100000000000000000000000100111100000000000000000000000000001110
0111001000000000000000000000000011111000000000000000000000000000000000000000000000000000000000001111100000000000000000000000001001111000000000000000000000000000111100100000000000000000000000100111100000000000000000000000000001110
0111001000000000000000000000000011111000000000000000000000000000000000000000000000000000000000001111100000000000000000000000001001111000000000000000000000000000111100100000000000000000000000100111100000000000000000000000000001110
0111001000000000000000000000000011111000000000000000000000000000000000000000000000000000000000001111100000000000000000000000001001111000000000000000000000000000111100100000000000000000000000100111100000000000000000000000000001110
0111001000000000000000000000000011111000000000000000000000000000000000000000000000000000000000001111100000000000000000000000001001111000000000000000000000000000111100100000000000000000000000100111100000000000000000000000000001110
0111001000000000000000000000000011111000000000000000000000000000000000000000000000000000000000001111100000000000000000000000001001111000000000000000000000000000111100100000000000000000000000100111100000000000000000000000000001110
0111001000000000000000000000000011111000000000000000000000000000000000000000000000000000000000001111100000000000000000000000001001111000000000000000000000000000111100100000000000000000000000100111100000000000000000000000000001110
0111001000000000000000000000000011111000000000000000000000000000000000000000000000000000000000001111100000000000000000000000001001111000000000000000000000000000111100100000000000000000000000100111100000000000000000000000000001110
0111001000000000000000000000000011111000000000000000000000000000000000000000000000000000000000001111100000000000000000000000001001111000000000000000000000000000111100100000000000000000000000100111100000000000000000000000000001110
0111001000000000000000000000000011111000000000000000000000000000000000000000000000000000000000001111100000000000000000000000001001111000000000000000000000000000111100100000000000000000000000100111100000000000000000000000000001110
0111001000000000000000000000000011111000000000000000000000000000000000000000000000000000000000001111100000000000000000000000001001111000000000000000000000000000111100100000000000000000000000100111100000000000000000000000000001110
0111001000000000000000000000000011111000000000000000000000000000000000000000000000000000000000001111100000000000000000000000001001111000000000000000000000000000111100100000000000000000000000100111100000000000000000000000000001110
0111001000000000000000000000000011111000000000000000000000000000000000000000000000000000000000001111100000000000000000000000001001111000000000000000000000000000111100100000000000000000000000100111100000000000000000000000000001110
0111001000000000000000000000000011111000000000000000000000000000000000000000000000000000000000001111100000000000000000000000001001111000000000000000000000000000111100100000000000000000000000100111100000000000000000000000000001110
0111001000000000000000000000000011111000000000000000000000000000000000000000000000000000000000001111100000000000000000000000001001111000000000000000000000000000111100100000000000000000000000100111100000000000000000000000000001110
0111001000000000000000000000000011111000000000000000000000000000000000000000000000000000000000001111100000000000000000000000001001111000000000000000000000000000111100100000000000000000000000100111100000000000000000000000000001110
0111001000000000000000000000000011111000000000000000000000000000000000000000000000000000000000001111100000000000000000000000001001111000000000000000000000000000111100100000000000000000000000100111100000000000000000000000000001110
0111001000000000000000000000000011111000000000000000000000000000000000000000000000000000000000001111100000000000000000000000001001111000000000000000000000000000111100100000000000000000000000100111100000000000000000000000000001110
0111001000000000000000000000000011111000000000000000000000000000000000000000000000000000000000001111100000000000000000000000001001111000000000000000000000000000111100100000000000000000000000100111100000000000000000000000000001110
0111001000000000000000000000000011111000000000000000000000000000000000000000000000000000000000001111100000000000000000000000001001111000000000000000000000000000111100100000000000000000000000100111100000000000000000000000000001110
0111001000000000000000000000000011111000000000000000000000000000000000000000000000000000000000001111100000000000000000000000001001111000000000000000000000000000111100100000000000000000000000100111100000000000000000000000000001110
0111001000000000000000000000000011111000000000000000000000000000000000000000000000000000000000001111100000000000000000000000001001111000000000000000000000000000111100100000000000000000000000100111100000000000000000000000000001110
0111001000000000000000000000000011111000000000000000000000000000000000000000000000000000000000001111100000000000000000000000001001111000000000000000000000000000111100100000000000000000000000100111100000000000000000000000000001110
0111001000000000000000000000000011111111111111111111111111111111111000000000000000000000000000001111111111111111111111111111111001111000000000000000000000000000111100100000000000000000000000100111100000000000000000000000000001110
0111001000000000000000000000000011110000000000000000000000000000001110000000000000000000000000001111000000000000000000000000000001111000000000000000000000000000111100100000000000000000000000100111100000000000000000000000000001110
0111001000000000000000000000000011110000000000000000000000000000000010000000000000000000000000001111000000000000000000000000000001111000000000000000000000000000111100100000000000000000000000100111100000000000000000000000000001110
0111001000000000000000000000000011111111111111111111111111111111110010000000000000000000000000001111111111111111111111111111111111111000000000000000000000000000111100100000000000000000000000100111100000000000000000000000000001110
0111001000000000000000000000000010111111111111111111111111111111111110000000000000000000000000001011111111111111111111111111111111111000000000000000000000000000101001100000000000000000000000100111100000000000000000000000000000100
0111001000000000000000000000000010011111111111111111111111111111111110000000000000000000000000001001111111111111111111111111111111111000000000000000000000000000111111000000000000000000000000100111100000000000000000000000000000000
0111001000000000000000000000000011000000000000000000000000000000011110000000000000000000000000001100000000000000000000000000000001111000000000000000000000000000000000000000000000000000000000100111100000000000000000000000000000000
0111001000000000000000000000000001100000000000000000000000000000011110000000000000000000000000000110000000000000000000000000000001111000000000000000000000000000000000000000000000000000000000100111100000000000000000000000000000000
0111001000000000000000000000000000111111111111111111111111111110011110000000000000000000000000000011111111111111111111111111111001111000000000000000000000000000000000000000000000000000000000100111100000000000000000000000000000000
0111001000000000000000000000000000000000000000000000000000000010011110000000000000000000000000000000000000000000000000000000001001111000000000000000000000000000000000000000000000000000000000100111100000000000000000000000000000000
0111001000000000000000000000000000000000000000000000000000000010011110000000000000000000000000000000000000000000000000000000001001111000000000000000000000000000000000000000000000000000000000100111100000000000000000000000000000000
0111001000000000000000000000000000000000000000000000000000000010011110000000000000000000000000000000000000000000000000000000001001111000000000000000000000000000000000000000000000000000000000100111100000000000000000000000000000000
0111001000000000000000000000000000000000000000000000000000000010011110000000000000000000000000000000000000000000000000000000001001111000000000000000000000000000000000000000000000000000000000100111100000000000000000000000000000000
0111001000000000000000000000000000000000000000000000000000000010011110000000000000000000000000000000000000000000000000000000001001111000000000000000000000000000000000000000000000000000000000100111100000000000000000000000000000000
0111001000000000000000000000000000000000000000000000000000000010011110000000000000000000000000000000000000000000000000000000001001111000000000000000000000000000000000000000000000000000000000100111100000000000000000000000000000000
0111001000000000000000000000000000000000000000000000000000000010011110000000000000000000000000000000000000000000000000000000001001111000000000000000000000000000000000000000000000000000000000100111100000000000000000000000000000000
0111001000000000000000000000000000000000000000000000000000000010011110000000000000000000000000000000000000000000000000000000001001111000000000000000000000000000000000000000000000000000000000100111100000000000000000000000000000000
0111001000000000000000000000000000000000000000000000000000000010011110000000000000000000000000000000000000000000000000000000001001111000000000000000000000000000000000000000000000000000000000100111100000000000000000000000000000000
0111001000000000000000000000000000000000000000000000000000000010011110000000000000000000000000000000000000000000000000000000001001111000000000000000000000000000000000000000000000000000000000100111100000000000000000000000000000000
0111001000000000000000000000000000000000000000000000000000000010011110000000000000000000000000000000000000000000000000000000001001111000000000000000000000000000000000000000000000000000000000100111100000000000000000000000000000000
0111001000000000000000000000000000000000000000000000000000000010011110000000000000000000000000000000000000000000000000000000001001111000000000000000000000000000000000000000000000000000000000100111100000000000000000000000000000000
0111001000000000000000000000000000000000000000000000000000000010011110000000000000000000000000000000000000000000000000000000001001111000000000000000000000000000000000000000000000000000000000100111100000000000000000000000000000000
0111001000000000000000000000000000000000000000000000000000000010011110000000000000000000000000000000000000000000000000000000001001111000000000000000000000000000000000000000000000000000000000100111100000000000000000000000000000000
0111001000000000000000000000000000000000000000000000000000000010011110000000000000000000000000000000000000000000000000000000001001111000000000000000000000000000000000000000000000000000000000100111100000000000000000000000000000000
0111001000000000000000000000000000000000000000000000000000000010011110000000000000000000000000000000000000000000000000000000001001111000000000000000000000000000000000000000000000000000000000100111100000000000000000000000000000000
0111001000000000000000000000000000000000000000000000000000000010011110000000000000000000000000000000000000000000000000000000001001111000000000000000000000000000000000000000000000000000000000100111100000000000000000000000000000000
0111001000000000000000000000000000000000000000000000000000000010011110000000000000000000000000000000000000000000000000000000001001111000000000000000000000000000000000000000000000000000000000100111100000000000000000000000000000000
0111001000000000000000000000000000000000000000000000000000000010011110000000000000000000000000000000000000000000000000000000001001111000000000000000000000000000000000000000000000000000000000100111100000000000000000000000000000000
0111001000000000000000000000000000000000000000000000000000000010011110000000000000000000000000000000000000000000000000000000001001111000000000000000000000000000000000000000000000000000000000100111100000000000000000000000000000000
0111001000000000000000000000000000000000000000000000000000000010011110000000000000000000000000000000000000000000000000000000001001111000000000000000000000000000000000000000000000000000000000100111100000000000000000000000000000000
0111001000000000000000000000000000000000000000000000000000000010011110000000000000000000000000000000000000000000000000000000001001111000000000000000000000000000000000000000000000000000000000100111100000000000000000000000000000000
0111001000000000000000000000000000000000000000000000000000000010011110000000000000000000000000000000000000000000000000000000001001111000000000000000000000000000000000000000000000000000000000100111100000000000000000000000000000000
0111001111111111111111111111111111111111111111111111111111111110011111111111111111111111111111111111111111111111111111111111111001111111111111111111111111111111111111111111111111111111111111100111111111111111111111111111100000000
0111000000000000000000000000000000000000000000000000000000000000011100000000000000000000000000000000000000000000000000000000000001110000000000000000000000000000000000000000000000000000000000000111000000000000000000000000000000000
0111000000000000000000000000000000000000000000000000000000000000011100000000000000000000000000000000000000000000000000000000000001110000000000000000000000000000000000000000000000000000000000000111000000000000000000000000000000000
0111111111111111111111111111111111111111111111111111111111111111111111111111111111111111111111111111111111111111111111111111111111111111111111111111111111111111111111111111111111111111111111111111111111111111111111111111111111000
0011111111111111111111111111111111111111111111111111111111111111111111111111111111111111111111111111111111111111111111111111111111111111111111111111111111111111111111111111111111111111111111111111111111111111111111111111111111100
0001111111111111111111111111111111111111111111111111111111111111111111111111111111111111111111111111111111111111111111111111111111111111111111111111111111111111111111111111111111111111111111111111111111111111111111111111111111000
0000000000000000000000000000000000000000000000000000000000000000000000000000000000000000000000000000000000000000000000000000000000000000000000000000000000000000000000000000000000000000000000000000000000000000000000000000000000000
