P1
#Created by UTFSM ELO329
197 229
0000000000000000000000000000000000000000000000000000000000000000000000000000000000000000000000000000000000000000000000000000000000000000000000000000000000000000000000000000000000000000000000000000000000000000000000000000000000000
0001111111111111111111111111111111111111111111111111111111111111111111111111111111111111111111111111111111111111111111111111111111111111111111111111111111111111111111111111111111111111111111111111111111111111111111111111111111000
0111111111111111111111111111111111111111111111111111111111111111111111111111111111111111111111111111111111111111111111111111111111111111111111111111111111111111111111111111111111111111111111111111111111111111111111111111111111110
0111111111111111111111111111111111111111111111111111111111111111111111111111111111111111111111111111111111111111111111111111111111111111111111111111111111111111111111111111111111111111111111111111111111111111111111111111111111110
0111000000000000000000000000000000000000000000000000000000000000000000000000000000000000000000000000000000000000000000000000000001110000000000000000000000000000000000000000000000000000000000000000000000000000000000000000000001110
0111000000000000000000000000000000000000000000000000000000000000000000000000000000000000000000000000000000000000000000000000000001110000000000000000000000000000000000000000000000000000000000000000000000000000000000000000000001110
0111000000000000000000000000000000000000000000000000000000000000000000000000000000000000000000000000000000000000000000000000000001110000000000000000000000000000000000000000000000000000000000000000000000000000000000000000000001110
0111000000000000000000000000000000000000000000000000000000000000000000000000000000000000000000000000000000000000000000000000000001110000000000000000000000000000000000000000000000000000000000000000000000000000000000000000000001110
0111000000000000000000000000000000000000000000000000000000000000000000000000000000000000000000000000000000000000000000000000000001110000000000000000000000000000000000000000000000000000000000000000000000000000000000000000000001110
0111000000000000000000000000000000000000000000000000000000000000000000000000000000000000000000000000000000000000000000000000000001110000000000000000000000000000000000000000000000000000000000000000000000000000000000000000000001110
0111000000000000000000000000000000000000000000000000000000000000000000000000000000000000000000000000000000000000000000000000000001110000000000000000000000000000000000000000000000000000000000000000000000000000000000000000000001110
0111000000000000000000000000000000000000000000000000000000000000000000000000000000000000000000000000000000000000000000000000000001110000000000000000000000000000000000000000000000000000000000000000000000000000000000000000000001110
0111000000000000000000000000000000000000000000000000000000000000000000000000000000000000000000000000000000000000000000000000000001110000000000000000000000000000000000000000000000000000000000000000000000000000000000000000000001110
0111000000000000000000000000000000000000000000000000000000000000000000000000000000000000000000000000000000000000000000000000000001110000000000000000000000000000000000000000000000000000000000000000000000000000000000000000000001110
0111000000000000000000000000000000000000000000000000000000000000000000000000000000000000000000000000000000000000000000000000000001110000000000000000000000000000000000000000000000000000000000000000000000000000000000000000000001110
0111000000000000000000000000000000000000000000000000000000000000000000000000000000000000000000000000000000000000000000000000000001110000000000000000000000000000000000000000000000000000000000000000000000000000000000000000000001110
0111000000000000000000000000000000000000000000000000000000000000000000000000000000000000000000000000000000000000000000000000000001110000000000000000000000000000000000000000000000000000000000000000000000000000000000000000000001110
0111000000000000000000000000000000000000000000000000000000000000000000000000000000000000000000000000000000000000000000000000000001110000000000000000000000000000000000000000000000000000000000000000000000000000000000000000000001110
0111000000000000000000000000000000000000000000000000000000000000000000000000000000000000000000000000000000000000000000000000000001110000000000000000000000000000000000000000000000000000000000000000000000000000000000000000000001110
0111000000000000000000000000000000000000000000000000000000000000000000000000000000000000000000000000000000000000000000000000000001110000000000000000000000000000000000000000000000000000000000000000000000000000000000000000000001110
0111000000000000000000000000000000000000000000000000000000000000000000000000000000000000000000000000000000000000000000000000000001110000000000000000000000000000000000000000000000000000000000000000000000000000000000000000000001110
0111000000000000000000000000000000000000000000000000000000000000000000000000000000000000000000000000000000000000000000000000000001110000000000000000000000000000000000000000000000000000000000000000000000000000000000000000000001110
0111000000000000000000000000000000000000000000000000000000000000000000000000000000000000000000000000000000000000000000000000000001110000000000000000000000000000000000000000000000000000000000000000000000000000000000000000000001110
0111000000000000000000000000000000000000000000000000000000000000000000000000000000000000000000000000000000000000000000000000000001110000000000000000000000000000000000000000000000000000000000000000000000000000000000000000000001110
0111000000000000000000000000000000000000000000000000000000000000000000000000000000000000000000000000000000000000000000000000000001110000000000000000000000000000000000000000000000000000000000000000000000000000000000000000000001110
0111000000000000000000000000000000000000000000000000000000000000000000000000000000000000000000000000000000000000000000000000000001110000000000000000000000000000000000000000000000000000000000000000000000000000000000000000000001110
0111000000000000000000000000000000000000000000000000000000000000000000000000000000000000000000000000000000000000000000000000000001110000000000000000000000000000000000000000000000000000000000000000000000000000000000000000000001110
0111000000000000000000000000000000000000000000000000000000000000000000000000000000000000000000000000000000000000000000000000000001110000000000000000000000000000000000000000000000000000000000000000000000000000000000000000000001110
0111000000000000000000000000000000000000000000000000000000000000000000000000000000000000000000000000000000000000000000000000000001110000000000000000000000000000000000000000000000000000000000000000000000000000000000000000000001110
0111000000000000000000000000000000000000000000000000000000000000000000000000000000000000000000000000000000000000000000000000000001110000000000000000000000000000000000000000000000000000000000000000000000000000000000000000000001110
0111000000000000000000000000000000000000000000000000000000000000000000000000000000000000000000000000000000000000000000000000000001110000000000000000000000000000000000000000000000000000000000000000000000000000000000000000000001110
0111000000000000000000000000000000000000000000000000000000000000000000000000000000000000000000000000000000000000000000000000000001110000000000000000000000000000000000000000000000000000000000000000000000000000000000000000000001110
0111000000000000000000000000000000000000000000000000000000000000000000000000000000000000000000000000000000000000000000000000000001110000000000000000000000000000000000000000000000000000000000000000000000000000000000000000000001110
0111000000000000000000000000000000011111111111111111111111111111110000000000000000000000000000000000000000000000000000000000000001110000000000000000000000000000000000000000000000000000000000000001111111111111111111111111111111110
0010000000000000000000000000000000111111111111111111111111111111111100000000000000000000000000000010000000000000000000000000000001110000000000000000000000000000001000000000000000000000000000000011111111111111111111111111111111110
0000000000000000000000000000000000011111111111111111111111111111111100000000000000000000000000000111000000000000000000000000000001110000000000000000000000000000011100000000000000000000000000000001111111111111111111111111111111110
0000000000000000000000000000000000000000000000000000000000000000011100000000000000000000000000000111000000000000000000000000000001110000000000000000000000000000011100000000000000000000000000000000000000000000000000000000000001110
0000000000000000000000000000000000000000000000000000000000000000011100000000000000000000000000000111000000000000000000000000000001110000000000000000000000000000011100000000000000000000000000000000000000000000000000000000000001110
0000000000000000000000000000000000000000000000000000000000000000011100000000000000000000000000000111000000000000000000000000000001110000000000000000000000000000011100000000000000000000000000000000000000000000000000000000000001110
0000000000000000000000000000000000000000000000000000000000000000011100000000000000000000000000000111000000000000000000000000000001110000000000000000000000000000011100000000000000000000000000000000000000000000000000000000000001110
0000000000000000000000000000000000000000000000000000000000000000011100000000000000000000000000000111000000000000000000000000000001110000000000000000000000000000011100000000000000000000000000000000000000000000000000000000000001110
0000000000000000000000000000000000000000000000000000000000000000011100000000000000000000000000000111000000000000000000000000000001110000000000000000000000000000011100000000000000000000000000000000000000000000000000000000000001110
0000000000000000000000000000000000000000000000000000000000000000011100000000000000000000000000000111000000000000000000000000000001110000000000000000000000000000011100000000000000000000000000000000000000000000000000000000000001110
0000000000000000000000000000000000000000000000000000000000000000011100000000000000000000000000000111000000000000000000000000000001110000000000000000000000000000011100000000000000000000000000000000000000000000000000000000000001110
0000000000000000000000000000000000000000000000000000000000000000011100000000000000000000000000000111000000000000000000000000000001110000000000000000000000000000011100000000000000000000000000000000000000000000000000000000000001110
0000000000000000000000000000000000000000000000000000000000000000011100000000000000000000000000000111000000000000000000000000000001110000000000000000000000000000011100000000000000000000000000000000000000000000000000000000000001110
0000000000000000000000000000000000000000000000000000000000000000011100000000000000000000000000000111000000000000000000000000000001110000000000000000000000000000011100000000000000000000000000000000000000000000000000000000000001110
0000000000000000000000000000000000000000000000000000000000000000011100000000000000000000000000000111000000000000000000000000000001110000000000000000000000000000011100000000000000000000000000000000000000000000000000000000000001110
0000000000000000000000000000000000000000000000000000000000000000011100000000000000000000000000000111000000000000000000000000000001110000000000000000000000000000011100000000000000000000000000000000000000000000000000000000000001110
0000000000000000000000000000000000000000000000000000000000000000011100000000000000000000000000000111000000000000000000000000000001110000000000000000000000000000011100000000000000000000000000000000000000000000000000000000000001110
0000000000000000000000000000000000000000000000000000000000000000011100000000000000000000000000000111000000000000000000000000000001110000000000000000000000000000011100000000000000000000000000000000000000000000000000000000000001110
0000000000000000000000000000000000000000000000000000000000000000011100000000000000000000000000000111000000000000000000000000000001110000000000000000000000000000011100000000000000000000000000000000000000000000000000000000000001110
0000000000000000000000000000000000000000000000000000000000000000011100000000000000000000000000000111000000000000000000000000000001110000000000000000000000000000011100000000000000000000000000000000000000000000000000000000000001110
0000000000000000000000000000000000000000000000000000000000000000011100000000000000000000000000000111000000000000000000000000000001110000000000000000000000000000011100000000000000000000000000000000000000000000000000000000000001110
0000000000000000000000000000000000000000000000000000000000000000011100000000000000000000000000000111000000000000000000000000000001110000000000000000000000000000011100000000000000000000000000000000000000000000000000000000000001110
0000000000000000000000000000000000000000000000000000000000000000011100000000000000000000000000000111000000000000000000000000000001110000000000000000000000000000011100000000000000000000000000000000000000000000000000000000000001110
0000000000000000000000000000000000000000000000000000000000000000011100000000000000000000000000000111000000000000000000000000000001110000000000000000000000000000011100000000000000000000000000000000000000000000000000000000000001110
0000000000000000000000000000000000000000000000000000000000000000011100000000000000000000000000000111000000000000000000000000000001110000000000000000000000000000011100000000000000000000000000000000000000000000000000000000000001110
0000000000000000000000000000000000000000000000000000000000000000011100000000000000000000000000000111000000000000000000000000000001110000000000000000000000000000011100000000000000000000000000000000000000000000000000000000000001110
0000000000000000000000000000000000000000000000000000000000000000011100000000000000000000000000000111000000000000000000000000000001110000000000000000000000000000011100000000000000000000000000000000000000000000000000000000000001110
0000000000000000000000000000000000000000000000000000000000000000011100000000000000000000000000000111000000000000000000000000000001110000000000000000000000000000011100000000000000000000000000000000000000000000000000000000000001110
0000000000000000000000000000000000000000000000000000000000000000011100000000000000000000000000000111000000000000000000000000000001110000000000000000000000000000011100000000000000000000000000000000000000000000000000000000000001110
0000000000000000000000000000000000000000000000000000000000000000011100000000000000000000000000000111000000000000000000000000000001110000000000000000000000000000011100000000000000000000000000000000000000000000000000000000000001110
0000000000000000000000000000000000000000000000000000000000000000011100000000000000000000000000000111000000000000000000000000000001110000000000000000000000000000011100000000000000000000000000000000000000000000000000000000000001110
0000000000000000000000000000000000000000000000000000000000000000011100000000000000000000000000000111000000000000000000000000000001110000000000000000000000000000011100000000000000000000000000000000000000000000000000000000000001110
0001111111111111111111111111111111111111111111111111111111111111111100000000000000000000000000000111111111111111111111111111111111110000000000000000000000000000011111111111111111111111111111111100000000000000000000000000000001110
0111111111111111111111111111111111111111111111111111111111111111111000000000000000000000000000000011111111111111111111111111111111100000000000000000000000000000011111111111111111111111111111111110000000000000000000000000000001110
0111111111111111111111111111111111111111111111111111111111111111111000000000000000000000000000000001111111111111111111111111111111100000000000000000000000000000011111111111111111111111111111111100000000000000000000000000000001110
0111000000000000000000000000000000000000000000000000000000000000000000000000000000000000000000000000000000000000000000000000000000000000000000000000000000000000011100000000000000000000000000000000000000000000000000000000000001110
0111000000000000000000000000000000000000000000000000000000000000000000000000000000000000000000000000000000000000000000000000000000000000000000000000000000000000011100000000000000000000000000000000000000000000000000000000000001110
0111000000000000000000000000000000000000000000000000000000000000000000000000000000000000000000000000000000000000000000000000000000000000000000000000000000000000011100000000000000000000000000000000000000000000000000000000000001110
0111000000000000000000000000000000000000000000000000000000000000000000000000000000000000000000000000000000000000000000000000000000000000000000000000000000000000011100000000000000000000000000000000000000000000000000000000000001110
0111000000000000000000000000000000000000000000000000000000000000000000000000000000000000000000000000000000000000000000000000000000000000000000000000000000000000011100000000000000000000000000000000000000000000000000000000000001110
0111000000000000000000000000000000000000000000000000000000000000000000000000000000000000000000000000000000000000000000000000000000000000000000000000000000000000011100000000000000000000000000000000000000000000000000000000000001110
0111000000000000000000000000000000000000000000000000000000000000000000000000000000000000000000000000000000000000000000000000000000000000000000000000000000000000011100000000000000000000000000000000000000000000000000000000000001110
0111000000000000000000000000000000000000000000000000000000000000000000000000000000000000000000000000000000000000000000000000000000000000000000000000000000000000011100000000000000000000000000000000000000000000000000000000000001110
0111000000000000000000000000000000000000000000000000000000000000000000000000000000000000000000000000000000000000000000000000000000000000000000000000000000000000011100000000000000000000000000000000000000000000000000000000000001110
0111000000000000000000000000000000000000000000000000000000000000000000000000000000000000000000000000000000000000000000000000000000000000000000000000000000000000011100000000000000000000000000000000000000000000000000000000000001110
0111000000000000000000000000000000000000000000000000000000000000000000000000000000000000000000000000000000000000000000000000000000000000000000000000000000000000011100000000000000000000000000000000000000000000000000000000000001110
0111000000000000000000000000000000000000000000000000000000000000000000000000000000000000000000000000000000000000000000000000000000000000000000000000000000000000011100000000000000000000000000000000000000000000000000000000000001110
0111000000000000000000000000000000000000000000000000000000000000000000000000000000000000000000000000000000000000000000000000000000000000000000000000000000000000011100000000000000000000000000000000000000000000000000000000000001110
0111000000000000000000000000000000000000000000000000000000000000000000000000000000000000000000000000000000000000000000000000000000000000000000000000000000000000011100000000000000000000000000000000000000000000000000000000000001110
0111000000000000000000000000000000000000000000000000000000000000000000000000000000000000000000000000000000000000000000000000000000000000000000000000000000000000011100000000000000000000000000000000000000000000000000000000000001110
0111000000000000000000000000000000000000000000000000000000000000000000000000000000000000000000000000000000000000000000000000000000000000000000000000000000000000011100000000000000000000000000000000000000000000000000000000000001110
0111000000000000000000000000000000000000000000000000000000000000000000000000000000000000000000000000000000000000000000000000000000000000000000000000000000000000011100000000000000000000000000000000000000000000000000000000000001110
0111000000000000000000000000000000000000000000000000000000000000000000000000000000000000000000000000000000000000000000000000000000000000000000000000000000000000011100000000000000000000000000000000000000000000000000000000000001110
0111000000000000000000000000000000000000000000000000000000000000000000000000000000000000000000000000000000000000000000000000000000000000000000000000000000000000011100000000000000000000000000000000000000000000000000000000000001110
0111000000000000000000000000000000000000000000000000000000000000000000000000000000000000000000000000000000000000000000000000000000000000000000000000000000000000011100000000000000000000000000000000000000000000000000000000000001110
0111000000000000000000000000000000000000000000000000000000000000000000000000000000000000000000000000000000000000000000000000000000000000000000000000000000000000011100000000000000000000000000000000000000000000000000000000000001110
0111000000000000000000000000000000000000000000000000000000000000000000000000000000000000000000000000000000000000000000000000000000000000000000000000000000000000011100000000000000000000000000000000000000000000000000000000000001110
0111000000000000000000000000000000000000000000000000000000000000000000000000000000000000000000000000000000000000000000000000000000000000000000000000000000000000011100000000000000000000000000000000000000000000000000000000000001110
0111000000000000000000000000000000000000000000000000000000000000000000000000000000000000000000000000000000000000000000000000000000000000000000000000000000000000011100000000000000000000000000000000000000000000000000000000000001110
0111000000000000000000000000000000000000000000000000000000000000000000000000000000000000000000000000000000000000000000000000000000000000000000000000000000000000011100000000000000000000000000000000000000000000000000000000000001110
0111000000000000000000000000000000000000000000000000000000000000000000000000000000000000000000000000000000000000000000000000000000000000000000000000000000000000011100000000000000000000000000000000000000000000000000000000000001110
0111000000000000000000000000000000000000000000000000000000000000000000000000000000000000000000000000000000000000000000000000000000000000000000000000000000000000011100000000000000000000000000000000000000000000000000000000000001110
0111000000000000000000000000000000000000000000000000000000000000000000000000000000000000000000000000000000000000000000000000000000000000000000000000000000000000011100000000000000000000000000000000000000000000000000000000000001110
0111000000000000000000000000000000000000000000000000000000000000000000000000000000000000000000000000000000000000000000000000000000000000000000000000000000000000011100000000000000000000000000000000000000000000000000000000000001110
0111000000000000000000000000000000000000000000000000000000000000000000000000000000000000000000000001111111111111111111111111111111000000000000000000000000000000011100000000000000000000000000000001111111111111111111111111111111110
0111000000000000000000000000000000100000000000000000000000000000001000000000000000000000000000000011111111111111111111111111111111110000000000000000000000000000011100000000000000000000000000000011111111111111111111111111111111110
0111000000000000000000000000000001110000000000000000000000000000011100000000000000000000000000000001111111111111111111111111111111110000000000000000000000000000011100000000000000000000000000000001111111111111111111111111111111110
0111000000000000000000000000000001110000000000000000000000000000011100000000000000000000000000000000000000000000000000000000000001110000000000000000000000000000011100000000000000000000000000000000000000000000000000000000000001110
0111000000000000000000000000000001110000000000000000000000000000011100000000000000000000000000000000000000000000000000000000000001110000000000000000000000000000011100000000000000000000000000000000000000000000000000000000000001110
0111000000000000000000000000000001110000000000000000000000000000011100000000000000000000000000000000000000000000000000000000000001110000000000000000000000000000011100000000000000000000000000000000000000000000000000000000000001110
0111000000000000000000000000000001110000000000000000000000000000011100000000000000000000000000000000000000000000000000000000000001110000000000000000000000000000011100000000000000000000000000000000000000000000000000000000000001110
0111000000000000000000000000000001110000000000000000000000000000011100000000000000000000000000000000000000000000000000000000000001110000000000000000000000000000011100000000000000000000000000000000000000000000000000000000000001110
0111000000000000000000000000000001110000000000000000000000000000011100000000000000000000000000000000000000000000000000000000000001110000000000000000000000000000011100000000000000000000000000000000000000000000000000000000000001110
0111000000000000000000000000000001110000000000000000000000000000011100000000000000000000000000000000000000000000000000000000000001110000000000000000000000000000011100000000000000000000000000000000000000000000000000000000000001110
0111000000000000000000000000000001110000000000000000000000000000011100000000000000000000000000000000000000000000000000000000000001110000000000000000000000000000011100000000000000000000000000000000000000000000000000000000000001110
0111000000000000000000000000000001110000000000000000000000000000011100000000000000000000000000000000000000000000000000000000000001110000000000000000000000000000011100000000000000000000000000000000000000000000000000000000000001110
0111000000000000000000000000000001110000000000000000000000000000011100000000000000000000000000000000000000000000000000000000000001110000000000000000000000000000011100000000000000000000000000000000000000000000000000000000000001110
0111000000000000000000000000000001110000000000000000000000000000011100000000000000000000000000000000000000000000000000000000000001110000000000000000000000000000011100000000000000000000000000000000000000000000000000000000000001110
0111000000000000000000000000000001110000000000000000000000000000011100000000000000000000000000000000000000000000000000000000000001110000000000000000000000000000011100000000000000000000000000000000000000000000000000000000000001110
0111000000000000000000000000000001110000000000000000000000000000011100000000000000000000000000000000000000000000000000000000000001110000000000000000000000000000011100000000000000000000000000000000000000000000000000000000000001110
0111000000000000000000000000000001110000000000000000000000000000011100000000000000000000000000000000000000000000000000000000000001110000000000000000000000000000011100000000000000000000000000000000000000000000000000000000000001110
0111000000000000000000000000000001110000000000000000000000000000011100000000000000000000000000000000000000000000000000000000000001110000000000000000000000000000011100000000000000000000000000000000000000000000000000000000000001110
0111000000000000000000000000000001110000000000000000000000000000011100000000000000000000000000000000000000000000000000000000000001110000000000000000000000000000011100000000000000000000000000000000000000000000000000000000000001110
0111000000000000000000000000000001110000000000000000000000000000011100000000000000000000000000000000000000000000000000000000000001110000000000000000000000000000011100000000000000000000000000000000000000000000000000000000000001110
0111000000000000000000000000000001110000000000000000000000000000011100000000000000000000000000000000000000000000000000000000000001110000000000000000000000000000011100000000000000000000000000000000000000000000000000000000000001110
0111000000000000000000000000000001110000000000000000000000000000011100000000000000000000000000000000000000000000000000000000000001110000000000000000000000000000011100000000000000000000000000000000000000000000000000000000000001110
0111000000000000000000000000000001110000000000000000000000000000011100000000000000000000000000000000000000000000000000000000000001110000000000000000000000000000011100000000000000000000000000000000000000000000000000000000000001110
0111000000000000000000000000000001110000000000000000000000000000011100000000000000000000000000000000000000000000000000000000000001110000000000000000000000000000011100000000000000000000000000000000000000000000000000000000000001110
0111000000000000000000000000000001110000000000000000000000000000011100000000000000000000000000000000000000000000000000000000000001110000000000000000000000000000011100000000000000000000000000000000000000000000000000000000000001110
0111000000000000000000000000000001110000000000000000000000000000011100000000000000000000000000000000000000000000000000000000000001110000000000000000000000000000011100000000000000000000000000000000000000000000000000000000000001110
0111000000000000000000000000000001110000000000000000000000000000011100000000000000000000000000000000000000000000000000000000000001110000000000000000000000000000011100000000000000000000000000000000000000000000000000000000000001110
0111000000000000000000000000000001110000000000000000000000000000011100000000000000000000000000000000000000000000000000000000000001110000000000000000000000000000011100000000000000000000000000000000000000000000000000000000000001110
0111000000000000000000000000000001110000000000000000000000000000011100000000000000000000000000000000000000000000000000000000000001110000000000000000000000000000011100000000000000000000000000000000000000000000000000000000000001110
0111000000000000000000000000000001110000000000000000000000000000011100000000000000000000000000000000000000000000000000000000000001110000000000000000000000000000011100000000000000000000000000000000000000000000000000000000000001110
0111000000000000000000000000000001110000000000000000000000000000011100000000000000000000000000000000000000000000000000000000000001110000000000000000000000000000011100000000000000000000000000000000000000000000000000000000000001110
0111000000000000000000000000000001110000000000000000000000000000011100000000000000000000000000000000000000000000000000000000000001110000000000000000000000000000011100000000000000000000000000000000000000000000000000000000000001110
0111000000000000000000000000000001110000000000000000000000000000011111111111111111111111111111111100000000000000000000000000000001110000000000000000000000000000011111111111111111111111111111111100000000000000000000000000000001110
0111000000000000000000000000000001110000000000000000000000000000001111111111111111111111111111111111000000000000000000000000000001110000000000000000000000000000011111111111111111111111111111111111000000000000000000000000000001110
0111000000000000000000000000000001110000000000000000000000000000000111111111111111111111111111111111000000000000000000000000000001110000000000000000000000000000011111111111111111111111111111111111000000000000000000000000000001110
0111000000000000000000000000000001110000000000000000000000000000000000000000000000000000000000000111000000000000000000000000000001110000000000000000000000000000011100000000000000000000000000000111000000000000000000000000000001110
0111000000000000000000000000000001110000000000000000000000000000000000000000000000000000000000000111000000000000000000000000000001110000000000000000000000000000011100000000000000000000000000000111000000000000000000000000000001110
0111000000000000000000000000000001110000000000000000000000000000000000000000000000000000000000000111000000000000000000000000000001110000000000000000000000000000011100000000000000000000000000000111000000000000000000000000000001110
0111000000000000000000000000000001110000000000000000000000000000000000000000000000000000000000000111000000000000000000000000000001110000000000000000000000000000011100000000000000000000000000000111000000000000000000000000000001110
0111000000000000000000000000000001110000000000000000000000000000000000000000000000000000000000000111000000000000000000000000000001110000000000000000000000000000011100000000000000000000000000000111000000000000000000000000000001110
0111000000000000000000000000000001110000000000000000000000000000000000000000000000000000000000000111000000000000000000000000000001110000000000000000000000000000011100000000000000000000000000000111000000000000000000000000000001110
0111000000000000000000000000000001110000000000000000000000000000000000000000000000000000000000000111000000000000000000000000000001110000000000000000000000000000011100000000000000000000000000000111000000000000000000000000000001110
0111000000000000000000000000000001110000000000000000000000000000000000000000000000000000000000000111000000000000000000000000000001110000000000000000000000000000011100000000000000000000000000000111000000000000000000000000000001110
0111000000000000000000000000000001110000000000000000000000000000000000000000000000000000000000000111000000000000000000000000000001110000000000000000000000000000011100000000000000000000000000000111000000000000000000000000000001110
0111000000000000000000000000000001110000000000000000000000000000000000000000000000000000000000000111000000000000000000000000000001110000000000000000000000000000011100000000000000000000000000000111000000000000000000000000000001110
0111000000000000000000000000000001110000000000000000000000000000000000000000000000000000000000000111000000000000000000000000000001110000000000000000000000000000011100000000000000000000000000000111000000000000000000000000000001110
0111000000000000000000000000000001110000000000000000000000000000000000000000000000000000000000000111000000000000000000000000000001110000000000000000000000000000011100000000000000000000000000000111000000000000000000000000000001110
0111000000000000000000000000000001110000000000000000000000000000000000000000000000000000000000000111000000000000000000000000000001110000000000000000000000000000011100000000000000000000000000000111000000000000000000000000000001110
0111000000000000000000000000000001110000000000000000000000000000000000000000000000000000000000000111000000000000000000000000000001110000000000000000000000000000011100000000000000000000000000000111000000000000000000000000000001110
0111000000000000000000000000000001110000000000000000000000000000000000000000000000000000000000000111000000000000000000000000000001110000000000000000000000000000011100000000000000000000000000000111000000000000000000000000000001110
0111000000000000000000000000000001110000000000000000000000000000000000000000000000000000000000000111000000000000000000000000000001110000000000000000000000000000011100000000000000000000000000000111000000000000000000000000000001110
0111000000000000000000000000000001110000000000000000000000000000000000000000000000000000000000000111000000000000000000000000000001110000000000000000000000000000011100000000000000000000000000000111000000000000000000000000000001110
0111000000000000000000000000000001110000000000000000000000000000000000000000000000000000000000000111000000000000000000000000000001110000000000000000000000000000011100000000000000000000000000000111000000000000000000000000000001110
0111000000000000000000000000000001110000000000000000000000000000000000000000000000000000000000000111000000000000000000000000000001110000000000000000000000000000011100000000000000000000000000000111000000000000000000000000000001110
0111000000000000000000000000000001110000000000000000000000000000000000000000000000000000000000000111000000000000000000000000000001110000000000000000000000000000011100000000000000000000000000000111000000000000000000000000000001110
0111000000000000000000000000000001110000000000000000000000000000000000000000000000000000000000000111000000000000000000000000000001110000000000000000000000000000011100000000000000000000000000000111000000000000000000000000000001110
0111000000000000000000000000000001110000000000000000000000000000000000000000000000000000000000000111000000000000000000000000000001110000000000000000000000000000011100000000000000000000000000000111000000000000000000000000000001110
0111000000000000000000000000000001110000000000000000000000000000000000000000000000000000000000000111000000000000000000000000000001110000000000000000000000000000011100000000000000000000000000000111000000000000000000000000000001110
0111000000000000000000000000000001110000000000000000000000000000000000000000000000000000000000000111000000000000000000000000000001110000000000000000000000000000011100000000000000000000000000000111000000000000000000000000000001110
0111000000000000000000000000000001110000000000000000000000000000000000000000000000000000000000000111000000000000000000000000000001110000000000000000000000000000011100000000000000000000000000000111000000000000000000000000000001110
0111000000000000000000000000000001110000000000000000000000000000000000000000000000000000000000000111000000000000000000000000000001110000000000000000000000000000011100000000000000000000000000000111000000000000000000000000000001110
0111000000000000000000000000000001110000000000000000000000000000000000000000000000000000000000000111000000000000000000000000000001110000000000000000000000000000011100000000000000000000000000000111000000000000000000000000000001110
0111000000000000000000000000000001110000000000000000000000000000000000000000000000000000000000000111000000000000000000000000000001110000000000000000000000000000011100000000000000000000000000000111000000000000000000000000000001110
0111000000000000000000000000000001110000000000000000000000000000000000000000000000000000000000000111000000000000000000000000000001110000000000000000000000000000011100000000000000000000000000000111000000000000000000000000000001110
0111000000000000000000000000000001111111111111111111111111111111110000000000000000000000000000000111111111111111111111111111111111110000000000000000000000000000011100000000000000000000000000000111000000000000000000000000000001110
0111000000000000000000000000000000111111111111111111111111111111111100000000000000000000000000000011111111111111111111111111111111110000000000000000000000000000001000000000000000000000000000000111000000000000000000000000000000100
0111000000000000000000000000000000011111111111111111111111111111111100000000000000000000000000000001111111111111111111111111111111110000000000000000000000000000000000000000000000000000000000000111000000000000000000000000000000000
0111000000000000000000000000000000000000000000000000000000000000011100000000000000000000000000000000000000000000000000000000000001110000000000000000000000000000000000000000000000000000000000000111000000000000000000000000000000000
0111000000000000000000000000000000000000000000000000000000000000011100000000000000000000000000000000000000000000000000000000000001110000000000000000000000000000000000000000000000000000000000000111000000000000000000000000000000000
0111000000000000000000000000000000000000000000000000000000000000011100000000000000000000000000000000000000000000000000000000000001110000000000000000000000000000000000000000000000000000000000000111000000000000000000000000000000000
0111000000000000000000000000000000000000000000000000000000000000011100000000000000000000000000000000000000000000000000000000000001110000000000000000000000000000000000000000000000000000000000000111000000000000000000000000000000000
0111000000000000000000000000000000000000000000000000000000000000011100000000000000000000000000000000000000000000000000000000000001110000000000000000000000000000000000000000000000000000000000000111000000000000000000000000000000000
0111000000000000000000000000000000000000000000000000000000000000011100000000000000000000000000000000000000000000000000000000000001110000000000000000000000000000000000000000000000000000000000000111000000000000000000000000000000000
0111000000000000000000000000000000000000000000000000000000000000011100000000000000000000000000000000000000000000000000000000000001110000000000000000000000000000000000000000000000000000000000000111000000000000000000000000000000000
0111000000000000000000000000000000000000000000000000000000000000011100000000000000000000000000000000000000000000000000000000000001110000000000000000000000000000000000000000000000000000000000000111000000000000000000000000000000000
0111000000000000000000000000000000000000000000000000000000000000011100000000000000000000000000000000000000000000000000000000000001110000000000000000000000000000000000000000000000000000000000000111000000000000000000000000000000000
0111000000000000000000000000000000000000000000000000000000000000011100000000000000000000000000000000000000000000000000000000000001110000000000000000000000000000000000000000000000000000000000000111000000000000000000000000000000000
0111000000000000000000000000000000000000000000000000000000000000011100000000000000000000000000000000000000000000000000000000000001110000000000000000000000000000000000000000000000000000000000000111000000000000000000000000000000000
0111000000000000000000000000000000000000000000000000000000000000011100000000000000000000000000000000000000000000000000000000000001110000000000000000000000000000000000000000000000000000000000000111000000000000000000000000000000000
0111000000000000000000000000000000000000000000000000000000000000011100000000000000000000000000000000000000000000000000000000000001110000000000000000000000000000000000000000000000000000000000000111000000000000000000000000000000000
0111000000000000000000000000000000000000000000000000000000000000011100000000000000000000000000000000000000000000000000000000000001110000000000000000000000000000000000000000000000000000000000000111000000000000000000000000000000000
0111000000000000000000000000000000000000000000000000000000000000011100000000000000000000000000000000000000000000000000000000000001110000000000000000000000000000000000000000000000000000000000000111000000000000000000000000000000000
0111000000000000000000000000000000000000000000000000000000000000011100000000000000000000000000000000000000000000000000000000000001110000000000000000000000000000000000000000000000000000000000000111000000000000000000000000000000000
0111000000000000000000000000000000000000000000000000000000000000011100000000000000000000000000000000000000000000000000000000000001110000000000000000000000000000000000000000000000000000000000000111000000000000000000000000000000000
0111000000000000000000000000000000000000000000000000000000000000011100000000000000000000000000000000000000000000000000000000000001110000000000000000000000000000000000000000000000000000000000000111000000000000000000000000000000000
0111000000000000000000000000000000000000000000000000000000000000011100000000000000000000000000000000000000000000000000000000000001110000000000000000000000000000000000000000000000000000000000000111000000000000000000000000000000000
0111000000000000000000000000000000000000000000000000000000000000011100000000000000000000000000000000000000000000000000000000000001110000000000000000000000000000000000000000000000000000000000000111000000000000000000000000000000000
0111000000000000000000000000000000000000000000000000000000000000011100000000000000000000000000000000000000000000000000000000000001110000000000000000000000000000000000000000000000000000000000000111000000000000000000000000000000000
0111000000000000000000000000000000000000000000000000000000000000011100000000000000000000000000000000000000000000000000000000000001110000000000000000000000000000000000000000000000000000000000000111000000000000000000000000000000000
0111000000000000000000000000000000000000000000000000000000000000011100000000000000000000000000000000000000000000000000000000000001110000000000000000000000000000000000000000000000000000000000000111000000000000000000000000000000000
0111000000000000000000000000000000000000000000000000000000000000011100000000000000000000000000000000000000000000000000000000000001110000000000000000000000000000000000000000000000000000000000000111000000000000000000000000000000000
0111000000000000000000000000000000000000000000000000000000000000011100000000000000000000000000000000000000000000000000000000000001110000000000000000000000000000000000000000000000000000000000000111000000000000000000000000000000000
0111000000000000000000000000000000000000000000000000000000000000011100000000000000000000000000000000000000000000000000000000000001110000000000000000000000000000000000000000000000000000000000000111000000000000000000000000000000000
0111000000000000000000000000000000000000000000000000000000000000011100000000000000000000000000000000000000000000000000000000000001110000000000000000000000000000000000000000000000000000000000000111000000000000000000000000000000000
0111000000000000000000000000000000000000000000000000000000000000011100000000000000000000000000000000000000000000000000000000000001110000000000000000000000000000000000000000000000000000000000000111000000000000000000000000000000000
0111000000000000000000000000000000000000000000000000000000000000011100000000000000000000000000000000000000000000000000000000000001110000000000000000000000000000000000000000000000000000000000000111000000000000000000000000000000000
0111111111111111111111111111111111111111111111111111111111111111111111111111111111111111111111111111111111111111111111111111111111111111111111111111111111111111111111111111111111111111111111111111111111111111111111111111111111000
0011111111111111111111111111111111111111111111111111111111111111111111111111111111111111111111111111111111111111111111111111111111111111111111111111111111111111111111111111111111111111111111111111111111111111111111111111111111100
0001111111111111111111111111111111111111111111111111111111111111111111111111111111111111111111111111111111111111111111111111111111111111111111111111111111111111111111111111111111111111111111111111111111111111111111111111111111000
0000000000000000000000000000000000000000000000000000000000000000000000000000000000000000000000000000000000000000000000000000000000000000000000000000000000000000000000000000000000000000000000000000000000000000000000000000000000000
