P1
#Created by UTFSM ELO329
229 197
00000000000000000000000000000000000000000000000000000000000000000000000000000000000000000000000000000000000000000000000000000000000000000000000000000000000000000000000000000000000000000000000000000
00111111111111111111111111111111111111111111111111111111111111111111111111111111111111111111111111111111111111111111111111111111111111111111111111111111111111111100000000000000000000000000000000000
00111111111111111111111111111111111111111111111111111111111111111111111111111111111111111111111111111111111111111111111111111111111111111111111111111111111111111110000000000000000000000000000000100
01111111111111111111111111111111111111111111111111111111111111111111111111111111111111111111111111111111111111111111111111111111111111111111111111111111111111111100000000000000000000000000000001110
01110000000000000000000000000000011100000000000000000000000000000000000000000000000000000000000001110000000000000000000000000000000000000000000000000000000000000000000000000000000000000000000001110
01110000000000000000000000000000011100000000000000000000000000000000000000000000000000000000000001110000000000000000000000000000000000000000000000000000000000000000000000000000000000000000000001110
01110000000000000000000000000000011100000000000000000000000000000000000000000000000000000000000001110000000000000000000000000000000000000000000000000000000000000000000000000000000000000000000001110
01110000000000000000000000000000011100000000000000000000000000000000000000000000000000000000000001110000000000000000000000000000000000000000000000000000000000000000000000000000000000000000000001110
01110000000000000000000000000000011100000000000000000000000000000000000000000000000000000000000001110000000000000000000000000000000000000000000000000000000000000000000000000000000000000000000001110
01110000000000000000000000000000011100000000000000000000000000000000000000000000000000000000000001110000000000000000000000000000000000000000000000000000000000000000000000000000000000000000000001110
01110000000000000000000000000000011100000000000000000000000000000000000000000000000000000000000001110000000000000000000000000000000000000000000000000000000000000000000000000000000000000000000001110
01110000000000000000000000000000011100000000000000000000000000000000000000000000000000000000000001110000000000000000000000000000000000000000000000000000000000000000000000000000000000000000000001110
01110000000000000000000000000000011100000000000000000000000000000000000000000000000000000000000001110000000000000000000000000000000000000000000000000000000000000000000000000000000000000000000001110
01110000000000000000000000000000011100000000000000000000000000000000000000000000000000000000000001110000000000000000000000000000000000000000000000000000000000000000000000000000000000000000000001110
01110000000000000000000000000000011100000000000000000000000000000000000000000000000000000000000001110000000000000000000000000000000000000000000000000000000000000000000000000000000000000000000001110
01110000000000000000000000000000011100000000000000000000000000000000000000000000000000000000000001110000000000000000000000000000000000000000000000000000000000000000000000000000000000000000000001110
01110000000000000000000000000000011100000000000000000000000000000000000000000000000000000000000001110000000000000000000000000000000000000000000000000000000000000000000000000000000000000000000001110
01110000000000000000000000000000011100000000000000000000000000000000000000000000000000000000000001110000000000000000000000000000000000000000000000000000000000000000000000000000000000000000000001110
01110000000000000000000000000000011100000000000000000000000000000000000000000000000000000000000001110000000000000000000000000000000000000000000000000000000000000000000000000000000000000000000001110
01110000000000000000000000000000011100000000000000000000000000000000000000000000000000000000000001110000000000000000000000000000000000000000000000000000000000000000000000000000000000000000000001110
01110000000000000000000000000000011100000000000000000000000000000000000000000000000000000000000001110000000000000000000000000000000000000000000000000000000000000000000000000000000000000000000001110
01110000000000000000000000000000011100000000000000000000000000000000000000000000000000000000000001110000000000000000000000000000000000000000000000000000000000000000000000000000000000000000000001110
01110000000000000000000000000000011100000000000000000000000000000000000000000000000000000000000001110000000000000000000000000000000000000000000000000000000000000000000000000000000000000000000001110
01110000000000000000000000000000011100000000000000000000000000000000000000000000000000000000000001110000000000000000000000000000000000000000000000000000000000000000000000000000000000000000000001110
01110000000000000000000000000000011100000000000000000000000000000000000000000000000000000000000001110000000000000000000000000000000000000000000000000000000000000000000000000000000000000000000001110
01110000000000000000000000000000011100000000000000000000000000000000000000000000000000000000000001110000000000000000000000000000000000000000000000000000000000000000000000000000000000000000000001110
01110000000000000000000000000000011100000000000000000000000000000000000000000000000000000000000001110000000000000000000000000000000000000000000000000000000000000000000000000000000000000000000001110
01110000000000000000000000000000011100000000000000000000000000000000000000000000000000000000000001110000000000000000000000000000000000000000000000000000000000000000000000000000000000000000000001110
01110000000000000000000000000000011100000000000000000000000000000000000000000000000000000000000001110000000000000000000000000000000000000000000000000000000000000000000000000000000000000000000001110
01110000000000000000000000000000011100000000000000000000000000000000000000000000000000000000000001110000000000000000000000000000000000000000000000000000000000000000000000000000000000000000000001110
01110000000000000000000000000000011100000000000000000000000000000000000000000000000000000000000001110000000000000000000000000000000000000000000000000000000000000000000000000000000000000000000001110
01110000000000000000000000000000011100000000000000000000000000000000000000000000000000000000000001110000000000000000000000000000000000000000000000000000000000000000000000000000000000000000000001110
01110000000000000000000000000000011100000000000000000000000000000000000000000000000000000000000001110000000000000000000000000000000000000000000000000000000000000000000000000000000000000000000001110
01110000000000000000000000000000011100000000000000000000000000000000000000000000000000000000000001110000000000000000000000000000001111111111111111111111111111111111111111111111111111111111111111110
01110000000000000000000000000000001000000000000000000000000000000010000000000000000000000000000000100000000000000000000000000000001111111111111111111111111111111111111111111111111111111111111111110
01110000000000000000000000000000000000000000000000000000000000000111000000000000000000000000000000000000000000000000000000000000011111111111111111111111111111111111111111111111111111111111111111110
01110000000000000000000000000000000000000000000000000000000000000111000000000000000000000000000000000000000000000000000000000000011100000000000000000000000000000000000000000000000000000000000001110
01110000000000000000000000000000000000000000000000000000000000000111000000000000000000000000000000000000000000000000000000000000011100000000000000000000000000000000000000000000000000000000000001110
01110000000000000000000000000000000000000000000000000000000000000111000000000000000000000000000000000000000000000000000000000000011100000000000000000000000000000000000000000000000000000000000001110
01110000000000000000000000000000000000000000000000000000000000000111000000000000000000000000000000000000000000000000000000000000011100000000000000000000000000000000000000000000000000000000000001110
01110000000000000000000000000000000000000000000000000000000000000111000000000000000000000000000000000000000000000000000000000000011100000000000000000000000000000000000000000000000000000000000001110
01110000000000000000000000000000000000000000000000000000000000000111000000000000000000000000000000000000000000000000000000000000011100000000000000000000000000000000000000000000000000000000000001110
01110000000000000000000000000000000000000000000000000000000000000111000000000000000000000000000000000000000000000000000000000000011100000000000000000000000000000000000000000000000000000000000001110
01110000000000000000000000000000000000000000000000000000000000000111000000000000000000000000000000000000000000000000000000000000011100000000000000000000000000000000000000000000000000000000000001110
01110000000000000000000000000000000000000000000000000000000000000111000000000000000000000000000000000000000000000000000000000000011100000000000000000000000000000000000000000000000000000000000001110
01110000000000000000000000000000000000000000000000000000000000000111000000000000000000000000000000000000000000000000000000000000011100000000000000000000000000000000000000000000000000000000000001110
01110000000000000000000000000000000000000000000000000000000000000111000000000000000000000000000000000000000000000000000000000000011100000000000000000000000000000000000000000000000000000000000001110
01110000000000000000000000000000000000000000000000000000000000000111000000000000000000000000000000000000000000000000000000000000011100000000000000000000000000000000000000000000000000000000000001110
01110000000000000000000000000000000000000000000000000000000000000111000000000000000000000000000000000000000000000000000000000000011100000000000000000000000000000000000000000000000000000000000001110
01110000000000000000000000000000000000000000000000000000000000000111000000000000000000000000000000000000000000000000000000000000011100000000000000000000000000000000000000000000000000000000000001110
01110000000000000000000000000000000000000000000000000000000000000111000000000000000000000000000000000000000000000000000000000000011100000000000000000000000000000000000000000000000000000000000001110
01110000000000000000000000000000000000000000000000000000000000000111000000000000000000000000000000000000000000000000000000000000011100000000000000000000000000000000000000000000000000000000000001110
01110000000000000000000000000000000000000000000000000000000000000111000000000000000000000000000000000000000000000000000000000000011100000000000000000000000000000000000000000000000000000000000001110
01110000000000000000000000000000000000000000000000000000000000000111000000000000000000000000000000000000000000000000000000000000011100000000000000000000000000000000000000000000000000000000000001110
01110000000000000000000000000000000000000000000000000000000000000111000000000000000000000000000000000000000000000000000000000000011100000000000000000000000000000000000000000000000000000000000001110
01110000000000000000000000000000000000000000000000000000000000000111000000000000000000000000000000000000000000000000000000000000011100000000000000000000000000000000000000000000000000000000000001110
01110000000000000000000000000000000000000000000000000000000000000111000000000000000000000000000000000000000000000000000000000000011100000000000000000000000000000000000000000000000000000000000001110
01110000000000000000000000000000000000000000000000000000000000000111000000000000000000000000000000000000000000000000000000000000011100000000000000000000000000000000000000000000000000000000000001110
01110000000000000000000000000000000000000000000000000000000000000111000000000000000000000000000000000000000000000000000000000000011100000000000000000000000000000000000000000000000000000000000001110
01110000000000000000000000000000000000000000000000000000000000000111000000000000000000000000000000000000000000000000000000000000011100000000000000000000000000000000000000000000000000000000000001110
01110000000000000000000000000000000000000000000000000000000000000111000000000000000000000000000000000000000000000000000000000000011100000000000000000000000000000000000000000000000000000000000001110
01110000000000000000000000000000000000000000000000000000000000000111000000000000000000000000000000000000000000000000000000000000011100000000000000000000000000000000000000000000000000000000000001110
01110000000000000000000000000000000000000000000000000000000000000111000000000000000000000000000000000000000000000000000000000000011100000000000000000000000000000000000000000000000000000000000001110
01110000000000000000000000000000000000000000000000000000000000000111000000000000000000000000000000000000000000000000000000000000011100000000000000000000000000000000000000000000000000000000000001110
01110000000000000000000000000000000000000000000000000000000000000111000000000000000000000000000000000000000000000000000000000000011100000000000000000000000000000000000000000000000000000000000001110
01110000000000000000000000000000000111111111111111111111111111111111111111111111111111111111111111111111111111111111111111111111111111111111111111111111111111111100000000000000000000000000000001110
01110000000000000000000000000000001111111111111111111111111111111111111111111111111111111111111111111111111111111111111111111111111111111111111111111111111111111110000000000000000000000000000001110
01110000000000000000000000000000000111111111111111111111111111111111111111111111111111111111111111111111111111111111111111111111111111111111111111111111111111111100000000000000000000000000000001110
01110000000000000000000000000000000000000000000000000000000000000000000000000000000000000000000000000000000000000000000000000000000000000000000000000000000000000000000000000000000000000000000001110
01110000000000000000000000000000000000000000000000000000000000000000000000000000000000000000000000000000000000000000000000000000000000000000000000000000000000000000000000000000000000000000000001110
01110000000000000000000000000000000000000000000000000000000000000000000000000000000000000000000000000000000000000000000000000000000000000000000000000000000000000000000000000000000000000000000001110
01110000000000000000000000000000000000000000000000000000000000000000000000000000000000000000000000000000000000000000000000000000000000000000000000000000000000000000000000000000000000000000000001110
01110000000000000000000000000000000000000000000000000000000000000000000000000000000000000000000000000000000000000000000000000000000000000000000000000000000000000000000000000000000000000000000001110
01110000000000000000000000000000000000000000000000000000000000000000000000000000000000000000000000000000000000000000000000000000000000000000000000000000000000000000000000000000000000000000000001110
01110000000000000000000000000000000000000000000000000000000000000000000000000000000000000000000000000000000000000000000000000000000000000000000000000000000000000000000000000000000000000000000001110
01110000000000000000000000000000000000000000000000000000000000000000000000000000000000000000000000000000000000000000000000000000000000000000000000000000000000000000000000000000000000000000000001110
01110000000000000000000000000000000000000000000000000000000000000000000000000000000000000000000000000000000000000000000000000000000000000000000000000000000000000000000000000000000000000000000001110
01110000000000000000000000000000000000000000000000000000000000000000000000000000000000000000000000000000000000000000000000000000000000000000000000000000000000000000000000000000000000000000000001110
01110000000000000000000000000000000000000000000000000000000000000000000000000000000000000000000000000000000000000000000000000000000000000000000000000000000000000000000000000000000000000000000001110
01110000000000000000000000000000000000000000000000000000000000000000000000000000000000000000000000000000000000000000000000000000000000000000000000000000000000000000000000000000000000000000000001110
01110000000000000000000000000000000000000000000000000000000000000000000000000000000000000000000000000000000000000000000000000000000000000000000000000000000000000000000000000000000000000000000001110
01110000000000000000000000000000000000000000000000000000000000000000000000000000000000000000000000000000000000000000000000000000000000000000000000000000000000000000000000000000000000000000000001110
01110000000000000000000000000000000000000000000000000000000000000000000000000000000000000000000000000000000000000000000000000000000000000000000000000000000000000000000000000000000000000000000001110
01110000000000000000000000000000000000000000000000000000000000000000000000000000000000000000000000000000000000000000000000000000000000000000000000000000000000000000000000000000000000000000000001110
01110000000000000000000000000000000000000000000000000000000000000000000000000000000000000000000000000000000000000000000000000000000000000000000000000000000000000000000000000000000000000000000001110
01110000000000000000000000000000000000000000000000000000000000000000000000000000000000000000000000000000000000000000000000000000000000000000000000000000000000000000000000000000000000000000000001110
01110000000000000000000000000000000000000000000000000000000000000000000000000000000000000000000000000000000000000000000000000000000000000000000000000000000000000000000000000000000000000000000001110
01110000000000000000000000000000000000000000000000000000000000000000000000000000000000000000000000000000000000000000000000000000000000000000000000000000000000000000000000000000000000000000000001110
01110000000000000000000000000000000000000000000000000000000000000000000000000000000000000000000000000000000000000000000000000000000000000000000000000000000000000000000000000000000000000000000001110
01110000000000000000000000000000000000000000000000000000000000000000000000000000000000000000000000000000000000000000000000000000000000000000000000000000000000000000000000000000000000000000000001110
01110000000000000000000000000000000000000000000000000000000000000000000000000000000000000000000000000000000000000000000000000000000000000000000000000000000000000000000000000000000000000000000001110
01110000000000000000000000000000000000000000000000000000000000000000000000000000000000000000000000000000000000000000000000000000000000000000000000000000000000000000000000000000000000000000000001110
01110000000000000000000000000000000000000000000000000000000000000000000000000000000000000000000000000000000000000000000000000000000000000000000000000000000000000000000000000000000000000000000001110
01110000000000000000000000000000000000000000000000000000000000000000000000000000000000000000000000000000000000000000000000000000000000000000000000000000000000000000000000000000000000000000000001110
01110000000000000000000000000000000000000000000000000000000000000000000000000000000000000000000000000000000000000000000000000000000000000000000000000000000000000000000000000000000000000000000001110
01110000000000000000000000000000000000000000000000000000000000000000000000000000000000000000000000000000000000000000000000000000000000000000000000000000000000000000000000000000000000000000000001110
01110000000000000000000000000000000000000000000000000000000000000000000000000000000000000000000000000000000000000000000000000000000000000000000000000000000000000000000000000000000000000000000001110
01111111111111111111111111111111111111111111111111111111111111111100000000000000000000000000000000111111111111111111111111111111111111111111111111111111111111111111111111111111111111111111111111110
01111111111111111111111111111111111111111111111111111111111111111111000000000000000000000000000000111111111111111111111111111111111111111111111111111111111111111111111111111111111111111111111111110
01111111111111111111111111111111111111111111111111111111111111111111000000000000000000000000000001111111111111111111111111111111111111111111111111111111111111111111111111111111111111111111111111110
01110000000000000000000000000000000000000000000000000000000000000111000000000000000000000000000001110000000000000000000000000000000000000000000000000000000000000111000000000000000000000000000001110
01110000000000000000000000000000000000000000000000000000000000000111000000000000000000000000000001110000000000000000000000000000000000000000000000000000000000000111000000000000000000000000000001110
01110000000000000000000000000000000000000000000000000000000000000111000000000000000000000000000001110000000000000000000000000000000000000000000000000000000000000111000000000000000000000000000001110
01110000000000000000000000000000000000000000000000000000000000000111000000000000000000000000000001110000000000000000000000000000000000000000000000000000000000000111000000000000000000000000000001110
01110000000000000000000000000000000000000000000000000000000000000111000000000000000000000000000001110000000000000000000000000000000000000000000000000000000000000111000000000000000000000000000001110
01110000000000000000000000000000000000000000000000000000000000000111000000000000000000000000000001110000000000000000000000000000000000000000000000000000000000000111000000000000000000000000000001110
01110000000000000000000000000000000000000000000000000000000000000111000000000000000000000000000001110000000000000000000000000000000000000000000000000000000000000111000000000000000000000000000001110
01110000000000000000000000000000000000000000000000000000000000000111000000000000000000000000000001110000000000000000000000000000000000000000000000000000000000000111000000000000000000000000000001110
01110000000000000000000000000000000000000000000000000000000000000111000000000000000000000000000001110000000000000000000000000000000000000000000000000000000000000111000000000000000000000000000001110
01110000000000000000000000000000000000000000000000000000000000000111000000000000000000000000000001110000000000000000000000000000000000000000000000000000000000000111000000000000000000000000000001110
01110000000000000000000000000000000000000000000000000000000000000111000000000000000000000000000001110000000000000000000000000000000000000000000000000000000000000111000000000000000000000000000001110
01110000000000000000000000000000000000000000000000000000000000000111000000000000000000000000000001110000000000000000000000000000000000000000000000000000000000000111000000000000000000000000000001110
01110000000000000000000000000000000000000000000000000000000000000111000000000000000000000000000001110000000000000000000000000000000000000000000000000000000000000111000000000000000000000000000001110
01110000000000000000000000000000000000000000000000000000000000000111000000000000000000000000000001110000000000000000000000000000000000000000000000000000000000000111000000000000000000000000000001110
01110000000000000000000000000000000000000000000000000000000000000111000000000000000000000000000001110000000000000000000000000000000000000000000000000000000000000111000000000000000000000000000001110
01110000000000000000000000000000000000000000000000000000000000000111000000000000000000000000000001110000000000000000000000000000000000000000000000000000000000000111000000000000000000000000000001110
01110000000000000000000000000000000000000000000000000000000000000111000000000000000000000000000001110000000000000000000000000000000000000000000000000000000000000111000000000000000000000000000001110
01110000000000000000000000000000000000000000000000000000000000000111000000000000000000000000000001110000000000000000000000000000000000000000000000000000000000000111000000000000000000000000000001110
01110000000000000000000000000000000000000000000000000000000000000111000000000000000000000000000001110000000000000000000000000000000000000000000000000000000000000111000000000000000000000000000001110
01110000000000000000000000000000000000000000000000000000000000000111000000000000000000000000000001110000000000000000000000000000000000000000000000000000000000000111000000000000000000000000000001110
01110000000000000000000000000000000000000000000000000000000000000111000000000000000000000000000001110000000000000000000000000000000000000000000000000000000000000111000000000000000000000000000001110
01110000000000000000000000000000000000000000000000000000000000000111000000000000000000000000000001110000000000000000000000000000000000000000000000000000000000000111000000000000000000000000000001110
01110000000000000000000000000000000000000000000000000000000000000111000000000000000000000000000001110000000000000000000000000000000000000000000000000000000000000111000000000000000000000000000001110
01110000000000000000000000000000000000000000000000000000000000000111000000000000000000000000000001110000000000000000000000000000000000000000000000000000000000000111000000000000000000000000000001110
01110000000000000000000000000000000000000000000000000000000000000111000000000000000000000000000001110000000000000000000000000000000000000000000000000000000000000111000000000000000000000000000001110
01110000000000000000000000000000000000000000000000000000000000000111000000000000000000000000000001110000000000000000000000000000000000000000000000000000000000000111000000000000000000000000000001110
01110000000000000000000000000000000000000000000000000000000000000111000000000000000000000000000001110000000000000000000000000000000000000000000000000000000000000111000000000000000000000000000001110
01110000000000000000000000000000000000000000000000000000000000000111000000000000000000000000000001110000000000000000000000000000000000000000000000000000000000000111000000000000000000000000000001110
01110000000000000000000000000000000000000000000000000000000000000111000000000000000000000000000001110000000000000000000000000000000000000000000000000000000000000111000000000000000000000000000001110
01110000000000000000000000000000000111111111111111111111111111111111000000000000000000000000000001110000000000000000000000000000001111111111111111111111111111111111000000000000000000000000000001110
01110000000000000000000000000000001111111111111111111111111111111110000000000000000000000000000000100000000000000000000000000000001111111111111111111111111111111110000000000000000000000000000001110
01110000000000000000000000000000000111111111111111111111111111111100000000000000000000000000000000000000000000000000000000000000011111111111111111111111111111111100000000000000000000000000000001110
01110000000000000000000000000000000000000000000000000000000000000000000000000000000000000000000000000000000000000000000000000000011100000000000000000000000000000000000000000000000000000000000001110
01110000000000000000000000000000000000000000000000000000000000000000000000000000000000000000000000000000000000000000000000000000011100000000000000000000000000000000000000000000000000000000000001110
01110000000000000000000000000000000000000000000000000000000000000000000000000000000000000000000000000000000000000000000000000000011100000000000000000000000000000000000000000000000000000000000001110
01110000000000000000000000000000000000000000000000000000000000000000000000000000000000000000000000000000000000000000000000000000011100000000000000000000000000000000000000000000000000000000000001110
01110000000000000000000000000000000000000000000000000000000000000000000000000000000000000000000000000000000000000000000000000000011100000000000000000000000000000000000000000000000000000000000001110
01110000000000000000000000000000000000000000000000000000000000000000000000000000000000000000000000000000000000000000000000000000011100000000000000000000000000000000000000000000000000000000000001110
01110000000000000000000000000000000000000000000000000000000000000000000000000000000000000000000000000000000000000000000000000000011100000000000000000000000000000000000000000000000000000000000001110
01110000000000000000000000000000000000000000000000000000000000000000000000000000000000000000000000000000000000000000000000000000011100000000000000000000000000000000000000000000000000000000000001110
01110000000000000000000000000000000000000000000000000000000000000000000000000000000000000000000000000000000000000000000000000000011100000000000000000000000000000000000000000000000000000000000001110
01110000000000000000000000000000000000000000000000000000000000000000000000000000000000000000000000000000000000000000000000000000011100000000000000000000000000000000000000000000000000000000000001110
01110000000000000000000000000000000000000000000000000000000000000000000000000000000000000000000000000000000000000000000000000000011100000000000000000000000000000000000000000000000000000000000001110
01110000000000000000000000000000000000000000000000000000000000000000000000000000000000000000000000000000000000000000000000000000011100000000000000000000000000000000000000000000000000000000000001110
01110000000000000000000000000000000000000000000000000000000000000000000000000000000000000000000000000000000000000000000000000000011100000000000000000000000000000000000000000000000000000000000001110
01110000000000000000000000000000000000000000000000000000000000000000000000000000000000000000000000000000000000000000000000000000011100000000000000000000000000000000000000000000000000000000000001110
01110000000000000000000000000000000000000000000000000000000000000000000000000000000000000000000000000000000000000000000000000000011100000000000000000000000000000000000000000000000000000000000001110
01110000000000000000000000000000000000000000000000000000000000000000000000000000000000000000000000000000000000000000000000000000011100000000000000000000000000000000000000000000000000000000000001110
01110000000000000000000000000000000000000000000000000000000000000000000000000000000000000000000000000000000000000000000000000000011100000000000000000000000000000000000000000000000000000000000001110
01110000000000000000000000000000000000000000000000000000000000000000000000000000000000000000000000000000000000000000000000000000011100000000000000000000000000000000000000000000000000000000000001110
01110000000000000000000000000000000000000000000000000000000000000000000000000000000000000000000000000000000000000000000000000000011100000000000000000000000000000000000000000000000000000000000001110
01110000000000000000000000000000000000000000000000000000000000000000000000000000000000000000000000000000000000000000000000000000011100000000000000000000000000000000000000000000000000000000000001110
01110000000000000000000000000000000000000000000000000000000000000000000000000000000000000000000000000000000000000000000000000000011100000000000000000000000000000000000000000000000000000000000001110
01110000000000000000000000000000000000000000000000000000000000000000000000000000000000000000000000000000000000000000000000000000011100000000000000000000000000000000000000000000000000000000000001110
01110000000000000000000000000000000000000000000000000000000000000000000000000000000000000000000000000000000000000000000000000000011100000000000000000000000000000000000000000000000000000000000001110
01110000000000000000000000000000000000000000000000000000000000000000000000000000000000000000000000000000000000000000000000000000011100000000000000000000000000000000000000000000000000000000000001110
01110000000000000000000000000000000000000000000000000000000000000000000000000000000000000000000000000000000000000000000000000000011100000000000000000000000000000000000000000000000000000000000001110
01110000000000000000000000000000000000000000000000000000000000000000000000000000000000000000000000000000000000000000000000000000011100000000000000000000000000000000000000000000000000000000000001110
01110000000000000000000000000000000000000000000000000000000000000000000000000000000000000000000000000000000000000000000000000000011100000000000000000000000000000000000000000000000000000000000001110
01110000000000000000000000000000000000000000000000000000000000000000000000000000000000000000000000000000000000000000000000000000011100000000000000000000000000000000000000000000000000000000000001110
01110000000000000000000000000000000000000000000000000000000000000000000000000000000000000000000000000000000000000000000000000000011100000000000000000000000000000000000000000000000000000000000001110
01110000000000000000000000000000001111111111111111111111111111111100000000000000000000000000000000011111111111111111111111111111111100000000000000000000000000000011111111111111111111111111111111110
01110000000000000000000000000000001111111111111111111111111111111111000000000000000000000000000000111111111111111111111111111111111000000000000000000000000000000011111111111111111111111111111111110
01110000000000000000000000000000011111111111111111111111111111111111000000000000000000000000000000011111111111111111111111111111110000000000000000000000000000000111111111111111111111111111111111110
01110000000000000000000000000000011100000000000000000000000000000111000000000000000000000000000000000000000000000000000000000000000000000000000000000000000000000111000000000000000000000000000001110
01110000000000000000000000000000011100000000000000000000000000000111000000000000000000000000000000000000000000000000000000000000000000000000000000000000000000000111000000000000000000000000000001110
01110000000000000000000000000000011100000000000000000000000000000111000000000000000000000000000000000000000000000000000000000000000000000000000000000000000000000111000000000000000000000000000001110
01110000000000000000000000000000011100000000000000000000000000000111000000000000000000000000000000000000000000000000000000000000000000000000000000000000000000000111000000000000000000000000000001110
01110000000000000000000000000000011100000000000000000000000000000111000000000000000000000000000000000000000000000000000000000000000000000000000000000000000000000111000000000000000000000000000001110
01110000000000000000000000000000011100000000000000000000000000000111000000000000000000000000000000000000000000000000000000000000000000000000000000000000000000000111000000000000000000000000000001110
01110000000000000000000000000000011100000000000000000000000000000111000000000000000000000000000000000000000000000000000000000000000000000000000000000000000000000111000000000000000000000000000001110
01110000000000000000000000000000011100000000000000000000000000000111000000000000000000000000000000000000000000000000000000000000000000000000000000000000000000000111000000000000000000000000000001110
01110000000000000000000000000000011100000000000000000000000000000111000000000000000000000000000000000000000000000000000000000000000000000000000000000000000000000111000000000000000000000000000001110
01110000000000000000000000000000011100000000000000000000000000000111000000000000000000000000000000000000000000000000000000000000000000000000000000000000000000000111000000000000000000000000000001110
01110000000000000000000000000000011100000000000000000000000000000111000000000000000000000000000000000000000000000000000000000000000000000000000000000000000000000111000000000000000000000000000001110
01110000000000000000000000000000011100000000000000000000000000000111000000000000000000000000000000000000000000000000000000000000000000000000000000000000000000000111000000000000000000000000000001110
01110000000000000000000000000000011100000000000000000000000000000111000000000000000000000000000000000000000000000000000000000000000000000000000000000000000000000111000000000000000000000000000001110
01110000000000000000000000000000011100000000000000000000000000000111000000000000000000000000000000000000000000000000000000000000000000000000000000000000000000000111000000000000000000000000000001110
01110000000000000000000000000000011100000000000000000000000000000111000000000000000000000000000000000000000000000000000000000000000000000000000000000000000000000111000000000000000000000000000001110
01110000000000000000000000000000011100000000000000000000000000000111000000000000000000000000000000000000000000000000000000000000000000000000000000000000000000000111000000000000000000000000000001110
01110000000000000000000000000000011100000000000000000000000000000111000000000000000000000000000000000000000000000000000000000000000000000000000000000000000000000111000000000000000000000000000001110
01110000000000000000000000000000011100000000000000000000000000000111000000000000000000000000000000000000000000000000000000000000000000000000000000000000000000000111000000000000000000000000000001110
01110000000000000000000000000000011100000000000000000000000000000111000000000000000000000000000000000000000000000000000000000000000000000000000000000000000000000111000000000000000000000000000001110
01110000000000000000000000000000011100000000000000000000000000000111000000000000000000000000000000000000000000000000000000000000000000000000000000000000000000000111000000000000000000000000000001110
01110000000000000000000000000000011100000000000000000000000000000111000000000000000000000000000000000000000000000000000000000000000000000000000000000000000000000111000000000000000000000000000001110
01110000000000000000000000000000011100000000000000000000000000000111000000000000000000000000000000000000000000000000000000000000000000000000000000000000000000000111000000000000000000000000000001110
01110000000000000000000000000000011100000000000000000000000000000111000000000000000000000000000000000000000000000000000000000000000000000000000000000000000000000111000000000000000000000000000001110
01110000000000000000000000000000011100000000000000000000000000000111000000000000000000000000000000000000000000000000000000000000000000000000000000000000000000000111000000000000000000000000000001110
01110000000000000000000000000000011100000000000000000000000000000111000000000000000000000000000000000000000000000000000000000000000000000000000000000000000000000111000000000000000000000000000001110
01110000000000000000000000000000011100000000000000000000000000000111000000000000000000000000000000000000000000000000000000000000000000000000000000000000000000000111000000000000000000000000000001110
01110000000000000000000000000000011100000000000000000000000000000111000000000000000000000000000000000000000000000000000000000000000000000000000000000000000000000111000000000000000000000000000001110
01110000000000000000000000000000011100000000000000000000000000000111000000000000000000000000000000000000000000000000000000000000000000000000000000000000000000000111000000000000000000000000000001110
01110000000000000000000000000000011100000000000000000000000000000111000000000000000000000000000000000000000000000000000000000000000000000000000000000000000000000111000000000000000000000000000001110
01110000000000000000000000000000011100000000000000000000000000000111000000000000000000000000000000011111111111111111111111111111111111111111111111111111111111111111000000000000000000000000000001110
01110000000000000000000000000000001000000000000000000000000000000111000000000000000000000000000000111111111111111111111111111111111111111111111111111111111111111110000000000000000000000000000001110
01110000000000000000000000000000000000000000000000000000000000000111000000000000000000000000000000011111111111111111111111111111111111111111111111111111111111111100000000000000000000000000000001110
01110000000000000000000000000000000000000000000000000000000000000111000000000000000000000000000000000000000000000000000000000000000000000000000000000000000000000000000000000000000000000000000001110
01110000000000000000000000000000000000000000000000000000000000000111000000000000000000000000000000000000000000000000000000000000000000000000000000000000000000000000000000000000000000000000000001110
01110000000000000000000000000000000000000000000000000000000000000111000000000000000000000000000000000000000000000000000000000000000000000000000000000000000000000000000000000000000000000000000001110
01110000000000000000000000000000000000000000000000000000000000000111000000000000000000000000000000000000000000000000000000000000000000000000000000000000000000000000000000000000000000000000000001110
01110000000000000000000000000000000000000000000000000000000000000111000000000000000000000000000000000000000000000000000000000000000000000000000000000000000000000000000000000000000000000000000001110
01110000000000000000000000000000000000000000000000000000000000000111000000000000000000000000000000000000000000000000000000000000000000000000000000000000000000000000000000000000000000000000000001110
01110000000000000000000000000000000000000000000000000000000000000111000000000000000000000000000000000000000000000000000000000000000000000000000000000000000000000000000000000000000000000000000001110
01110000000000000000000000000000000000000000000000000000000000000111000000000000000000000000000000000000000000000000000000000000000000000000000000000000000000000000000000000000000000000000000001110
01110000000000000000000000000000000000000000000000000000000000000111000000000000000000000000000000000000000000000000000000000000000000000000000000000000000000000000000000000000000000000000000001110
01110000000000000000000000000000000000000000000000000000000000000111000000000000000000000000000000000000000000000000000000000000000000000000000000000000000000000000000000000000000000000000000001110
01110000000000000000000000000000000000000000000000000000000000000111000000000000000000000000000000000000000000000000000000000000000000000000000000000000000000000000000000000000000000000000000001110
01110000000000000000000000000000000000000000000000000000000000000111000000000000000000000000000000000000000000000000000000000000000000000000000000000000000000000000000000000000000000000000000001110
01110000000000000000000000000000000000000000000000000000000000000111000000000000000000000000000000000000000000000000000000000000000000000000000000000000000000000000000000000000000000000000000001110
01110000000000000000000000000000000000000000000000000000000000000111000000000000000000000000000000000000000000000000000000000000000000000000000000000000000000000000000000000000000000000000000001110
01110000000000000000000000000000000000000000000000000000000000000111000000000000000000000000000000000000000000000000000000000000000000000000000000000000000000000000000000000000000000000000000001110
01110000000000000000000000000000000000000000000000000000000000000111000000000000000000000000000000000000000000000000000000000000000000000000000000000000000000000000000000000000000000000000000001110
01110000000000000000000000000000000000000000000000000000000000000111000000000000000000000000000000000000000000000000000000000000000000000000000000000000000000000000000000000000000000000000000001110
01110000000000000000000000000000000000000000000000000000000000000111000000000000000000000000000000000000000000000000000000000000000000000000000000000000000000000000000000000000000000000000000001110
01110000000000000000000000000000000000000000000000000000000000000111000000000000000000000000000000000000000000000000000000000000000000000000000000000000000000000000000000000000000000000000000001110
01110000000000000000000000000000000000000000000000000000000000000111000000000000000000000000000000000000000000000000000000000000000000000000000000000000000000000000000000000000000000000000000001110
01110000000000000000000000000000000000000000000000000000000000000111000000000000000000000000000000000000000000000000000000000000000000000000000000000000000000000000000000000000000000000000000001110
01110000000000000000000000000000000000000000000000000000000000000111000000000000000000000000000000000000000000000000000000000000000000000000000000000000000000000000000000000000000000000000000001110
01110000000000000000000000000000000000000000000000000000000000000111000000000000000000000000000000000000000000000000000000000000000000000000000000000000000000000000000000000000000000000000000001110
01110000000000000000000000000000000000000000000000000000000000000111000000000000000000000000000000000000000000000000000000000000000000000000000000000000000000000000000000000000000000000000000001110
01110000000000000000000000000000000000000000000000000000000000000111000000000000000000000000000000000000000000000000000000000000000000000000000000000000000000000000000000000000000000000000000001110
01110000000000000000000000000000000000000000000000000000000000000111000000000000000000000000000000000000000000000000000000000000000000000000000000000000000000000000000000000000000000000000000001110
01110000000000000000000000000000000000000000000000000000000000000111000000000000000000000000000000000000000000000000000000000000000000000000000000000000000000000000000000000000000000000000000001110
01110000000000000000000000000000000000000000000000000000000000000111000000000000000000000000000000000000000000000000000000000000000000000000000000000000000000000000000000000000000000000000000001110
01110000000000000000000000000000000000000000000000000000000000000111000000000000000000000000000000000000000000000000000000000000000000000000000000000000000000000000000000000000000000000000000001110
01111111111111111111111111111111110000000000000000000000000000000111111111111111111111111111111111111111111111111111111111111111111111111111111111111111111111111111111111111111111111111111111111110
00111111111111111111111111111111111000000000000000000000000000000011111111111111111111111111111111111111111111111111111111111111111111111111111111111111111111111111111111111111111111111111111111100
00111111111111111111111111111111110000000000000000000000000000000011111111111111111111111111111111111111111111111111111111111111111111111111111111111111111111111111111111111111111111111111111111000
00000000000000000000000000000000000000000000000000000000000000000000000000000000000000000000000000000000000000000000000000000000000000000000000000000000000000000000000000000000000000000000000000000
