P1
# CREATOR: Agustín J. González  29.03.2018
70 42
0000000000000000000000000000000000000000000000000000000000000000000000
0000000000000000000000000000000000000000000000000000000000000000000000
0000000000000000000000000000000000000000000000000000000000000000000000
0000000000000000000000000000000000000000000000000000000000000000000000
0000000000000000000000000000000000000000000000000000000000000000000000
0000000000000000000000000000000000000000000000000000000000000000000000
1111111111111111111111111111111111111111111111111111111111111111111000
1111111111111111111111111111111111111111111111111111111111111111111000
1111111111111111111111111111111111111111111111111111111111111111111000
1111111111111111111111111111111111111111111111111111111111111111111000
1111111111111111111111111111111111111111111111111111111111111111111000
1111111111111111111111111111111111111111111111111111111111111111111000
0000000000000000000000000000000000000000000000000000000000000111111000
0000000000000000000000000000000000000000000000000000000000000111111000
0000000000000000000000000000000000000000000000000000000000000111111000
0000000000000000000000000000000000000000000000000000000000000111111000
0000000000000000000000000000000000000000000000000000000000000111111000
0000000000000000000000000000000000000000000000000000000000000111111000
0000000000000000000000000000000000000000000000000000000000000111111000
0000000000000000000000000000000000000000000000000000000000000111111000
0000000000000000000000000000000000000000000000000000000000000111111000
0000000000000000000000000000000000000000000000000000000000000111111000
0000000000000000000000000000000000000000000000000000000000000111111000
0000000000000000000000000000000000000000000000000000000000000111111000
0000000000000000000000000000000000000000000000000000000000000111111000
0000000000000000000000000000000000000000000000000000000000000111111000
0000000000000000000000000000000000000000000000000000000000000111111000
0000000000000000000000000000000000000000000000000000000000000111111000
0000000000000000000000000000000000000000000000000000000000000111111000
0000000000000000000000000000000000000000000000000000000000000111111000
1111111111111111111111111111111111111111111111111111111111111111111000
1111111111111111111111111111111111111111111111111111111111111111111000
1111111111111111111111111111111111111111111111111111111111111111111000
1111111111111111111111111111111111111111111111111111111111111111111000
1111111111111111111111111111111111111111111111111111111111111111111000
1111111111111111111111111111111111111111111111111111111111111111111000
0000000000000000000000000000000000000000000000000000000000000000000000
0000000000000000000000000000000000000000000000000000000000000000000000
0000000000000000000000000000000000000000000000000000000000000000000000
0000000000000000000000000000000000000000000000000000000000000000000000
0000000000000000000000000000000000000000000000000000000000000000000000
0000000000000000000000000000000000000000000000000000000000000000000000

