P1
# 40 3   0 1   190  225 5
# CREATOR: GIMP PNM Filter Version 1.1
229 197
0000000000000000000000000000000000000000000000000000000000000000000000
0000000000000000000000000000000000000000000000000000000000000000000000
0000000000000000000000000000000000000000000000000000000000000000000000
0000000000000000000000111111111111111111111111111111111111111111111111
1111111111111111111111111111111111111111111111111111111111111111111111
1111111111111111111111111111111111111111111111111111111111111111111111
1111111111111111111111111111111111100001111111111111111111111111111111
1111111111111111111111111111111111111111111111111111111111111111111111
1111111111111111111111111111111111111111111111111111111111111111111111
1111111111111111111111111111111111111111111111111111111100111111111111
1111111111111111111111111111111111111111111111111111111111111111111111
1111111111111111111111111111111111111111111111111111111111111111111111
1111111111111111111111111111111111111111111111111111111111111111111111
1111100111000000000000000000000000000000000000000000000000000000000000
0000000000000000000000000000000000000000000000000000000000000000011100
0000000000000000000000000000000000000000000000000000000000000000000000
0000000000000000000001110011100000000000000000000000000000000000000000
0000000000000000000000000000000000000000000000000000000000000000000000
0000000000000011100000000000000000000000000000000000000000000000000000
0000000000000000000000000000000000000000111001110000000000000000000000
0000000000000000000000000000000000000000000000000000000000000000000000
0000000000000000000000000000000001110000000000000000000000000000000000
0000000000000000000000000000000000000000000000000000000000011100111000
0000000000000000000000000000000000000000000000000000000000000000000000
0000000000000000000000000000000000000000000000000000111000000000000000
0000000000000000000000000000000000000000000000000000000000000000000000
0000000011100111000000000000000000000000000000000000000000000000000000
0000000000000000000000000000000000000000000000000000000000000000000000
0111000000000000000000000000000000000000000000000000000000000000000000
0000000000000000000000000001110011100000000000000000000000000000000000
0000000000000000000000000000000000000000000000000000000000000000000000
0000000000000000000011100000000000000000000000000000000000000000000000
0000000000000000000000000000000000000000000000111001110000000000000000
0000000000000000000000000000000000000000000000000000000000000000000000
0000000000000000000000000000000000000001110000000000000000000000000000
0000000000000000000000000000000000000000000000000000000000000000011100
1110000000000000000000000000000000000000000000000000000000000000000000
0000000000000000000000000000000000000000000000000000000000111000000000
0000000000000000000000000000000000000000000000000000000000000000000000
0000000000000011100111000000000000000000000000000000000000000000000000
0000000000000000000000000000000000000000000000000000000000000000000000
0000000111000000000000000000000000000000000000000000000000000000000000
0000000000000000000000000000000001110011100000000000000000000000000000
0000000000000000000000000000000000000000000000000000000000000000000000
0000000000000000000000000011100000000000000000000000000000000000000000
0000000000000000000000000000000000000000000000000000111001110000000000
0000000000000000000000000000000000000000000000000000000000000000000000
0000000000000000000000000000000000000000000001110000000000000000000000
0000000000000000000000000000000000000000000000000000000000000000000000
0111001110000000000000000000000000000000000000000000000000000000000000
0000000000000000000000000000000000000000000000000000000000000000111000
0000000000000000000000000000000000000000000000000000000000000000000000
0000000000000000000011100111000000000000000000000000000000000000000000
0000000000000000000000000000000000000000000000000000000000000000000000
0000000000000111000000000000000000000000000000000000000000000000000000
0000000000000000000000000000000000000001110011100000000000000000000000
0000000000000000000000000000000000000000000000000000000000000000000000
0000000000000000000000000000000011100000000000000000000000000000000000
0000000000000000000000000000000000000000000000000000000000111001110000
0000000000000000000000000000000000000000000000000000000000000000000000
0000000000000000000000000000000000000000000000000001110000000000000000
0000000000000000000000000000000000000000000000000000000000000000000000
0000000111001110000000000000000000000000000000000000000000000000000000
0000000000000000000000000000000000000000000000000000000000000000000000
1110000000000000000000000000000000000000000000000000000000000000000000
0000000000000000000000000011100111000000000000000000000000000000000000
0000000000000000000000000000000000000000000000000000000000000000000000
0000000000000000000111000000000000000000000000000000000000000000000000
0000000000000000000000000000000000000000000001110011100000000000000000
0000000000000000000000000000000000000000000000000000000000000000000000
0000000000000000000000000000000000000011100000000000000000000000000000
0000000000000000000000000000000000000000000000000000000000000000111001
1100000000000000000000000000000000000000000000000000000000000000000000
0000000000000000000000000000000000000000000000000000000001110000000000
0000000000000000000000000000000000000000000000000000000000000000000000
0000000000000111001110000000000000000000000000000000000000000000000000
0000000000000000000000000000000000000000000000000000000000000000000000
0000001110000000000000000000000000000000000000000000000000000000000000
0000000000000000000000000000000011100111000000000000000000000000000000
0000000000000000000000000000000000000000000000000000000000000000000000
0000000000000000000000000111000000000000000000000000000000000000000000
0000000000000000000000000000000000000000000000000001110011100000000000
0000000000000000000000000000000000000000000000000000000000000000000000
0000000000000000000000000000000000000000000011100000000000000000000000
0000000000000000000000000000000000000000000000000000000000000000000000
1110011100000000000000000000000000000000000000000000000000000000000000
0000000000000000000000000000000000000000000000000000000000000001110000
0000000000000000000000000000000000000000000000000000000000000000000000
0000000000000000000111001110000000000000000000000000000000000000000000
0000000000000000000000000000000000000000000000000000000000000000000000
0000000000001110000000000000000000000000000000000000000000000000000000
0000000000000000000000000000000000000011100111000000000000000000000000
0000000000000000000000000000000000000000000000000000000000000000000000
0000000000000000000000000000000111000000000000000000000000000000000000
0000000000000000000000000000000000000000000000000000000001110011100000
0000000000000000000000000000000000000000000000000000000000000000000000
0000000000000000000000000000000000000000000000000011100000000000000000
0000000000000000000000000000000000000000000000000000000000000000000000
0000001110011100000000000000000000000000000000000000000000000000000000
0000000000000000000000000000000000000000000000000000000000000000000001
1100000000000000000000000000000000000000000000000000000000000000000000
0000000000000000000000000111001110000000000000000000000000000000000000
0000000000000000000000000000000000000000000000000000000000000000000000
0000000000000000001110000000000000000000000000000000000000000000000000
0000000000000000000000000000000000000000000011100111000000000000000000
0000000000000000000000000000000000000000000000000000000000000000000000
0000000000000000000000000000000000000111000000000000000000000000000000
0000000000000000000000000000000000000000000000000000000000000001110011
1000000000000000000000000000000011111111111111111111111111111110000000
0000000000000000000000000000000000000000000000000000000011100000000000
0000000000000000000000000000000000000000000000000000111111111111111111
1111111111111110001000000000000000000000000000000011111111111111111111
1111111111111100000000000000000000000000000010000000000000000000000000
0000011100000000000000000000000000000010000000000000000000000000000000
1111111111111111111111111111111111000000000000000000000000000000000000
1111111111111111111111111111111110000000000000000000000000000011100000
0000000000000000000000001110000000000000000000000000000011100000000000
0000000000000000000011111111111111111111111111111111100000000000000000
0000000000000000000000000000000000000000000000000111000000000000000000
0000000000011100000000000000000000000000000111000000000000000000000000
0000011100000000000000000000000000000000000000000000000000000000000001
1100000000000000000000000000000000000000000000000000000000000000000011
1000000000000000000000000000001110000000000000000000000000000011100000
0000000000000000000000001110000000000000000000000000000000000000000000
0000000000000000001110000000000000000000000000000000000000000000000000
0000000000000000011100000000000000000000000000000111000000000000000000
0000000000011100000000000000000000000000000111000000000000000000000000
0000000000000000000000000000000000000111000000000000000000000000000000
0000000000000000000000000000000000001110000000000000000000000000000011
1000000000000000000000000000001110000000000000000000000000000011100000
0000000000000000000000000000000000000000000000000000000011100000000000
0000000000000000000000000000000000000000000000000000000111000000000000
0000000000000000011100000000000000000000000000000111000000000000000000
0000000000011100000000000000000000000000000000000000000000000000000000
0000011100000000000000000000000000000000000000000000000000000000000000
0000111000000000000000000000000000001110000000000000000000000000000011
1000000000000000000000000000001110000000000000000000000000000000000000
0000000000000000000000001110000000000000000000000000000000000000000000
0000000000000000000000011100000000000000000000000000000111000000000000
0000000000000000011100000000000000000000000000000111000000000000000000
0000000000000000000000000000000000000000000111000000000000000000000000
0000000000000000000000000000000000000000001110000000000000000000000000
0000111000000000000000000000000000001110000000000000000000000000000011
1000000000000000000000000000000000000000000000000000000000000011100000
0000000000000000000000000000000000000000000000000000000000000111000000
0000000000000000000000011100000000000000000000000000000111000000000000
0000000000000000011100000000000000000000000000000000000000000000000000
0000000000011100000000000000000000000000000000000000000000000000000000
0000000000111000000000000000000000000000001110000000000000000000000000
0000111000000000000000000000000000001110000000000000000000000000000000
0000000000000000000000000000001110000000000000000000000000000000000000
0000000000000000000000000000011100000000000000000000000000000111000000
0000000000000000000000011100000000000000000000000000000111000000000000
0000000000000000000000000000000000000000000000000111000000000000000000
0000000000000000000000000000000000000000000000001110000000000000000000
0000000000111000000000000000000000000000001110000000000000000000000000
0000111000000000000000000000000000000000000000000000000000000000000011
1000000000000000000000000000000000000000000000000000000000000000000111
0000000000000000000000000000011100000000000000000000000000000111000000
0000000000000000000000011100000000000000000000000000000000000000000000
0000000000000000011100000000000000000000000000000000000000000000000000
0000000000000000111000000000000000000000000000001110000000000000000000
0000000000111000000000000000000000000000001110000000000000000000000000
0000000000000000000000000000000000001110000000000000000000000000000000
0000000000000000000000000000000000011100000000000000000000000000000111
0000000000000000000000000000011100000000000000000000000000000111000000
0000000000000000000000000000000000000000000000000000000111000000000000
0000000000000000000000000000000000000000000000000000001110000000000000
0000000000000000111000000000000000000000000000001110000000000000000000
0000000000111000000000000000000000000000000000000000000000000000000000
0000111000000000000000000000000000000000000000000000000000000000000000
0001110000000000000000000000000000011100000000000000000000000000000111
0000000000000000000000000000011100000000000000000000000000000000000000
0000000000000000000000011100000000000000000000000000000000000000000000
0000000000000000000000111000000000000000000000000000001110000000000000
0000000000000000111000000000000000000000000000001110000000000000000000
0000000000000000000000000000000000000000001110000000000000000000000000
0000000000000000000000000000000000000000011100000000000000000000000000
0001110000000000000000000000000000011100000000000000000000000000000111
0000000000000000000000000000000000000000000000000000000000000111000000
0000000000000000000000000000000000000000000000000000000000001110000000
0000000000000000000000111000000000000000000000000000001110000000000000
0000000000000000111000000000000000000000000000000000000000000000000000
0000000000111000000000000000000000000000000000000000000000000000000000
0000000001110000000000000000000000000000011100000000000000000000000000
0001110000000000000000000000000000011100000000000000000000000000000000
0000000000000000000000000000011100000000000000000000000000000000000000
0000000000000000000000000000111000000000000000000000000000001110000000
0000000000000000000000111000000000000000000000000000001110000000000000
0000000000000000000000000000000000000000000000001110000000000000000000
0000000000000000000000000000000000000000000000011100000000000000000000
0000000001110000000000000000000000000000011100000000000000000000000000
0001110000000000000000000000000000000000000000000000000000000000000111
0000000000000000000000000000000000000000000000000000000000000000001110
0000000000000000000000000000111000000000000000000000000000001110000000
0000000000000000000000111000000000000000000000000000000000000000000000
0000000000000000111000000000000000000000000000000000000000000000000000
0000000000000001110000000000000000000000000000011100000000000000000000
0000000001110000000000000000000000000000011100000000000000000000000000
0000000000000000000000000000000000011100000000000000000000000000000000
0000000000000000000000000000000000111000000000000000000000000000001110
0000000000000000000000000000111000000000000000000000000000001110000000
0000000000000000000000000000000000000000000000000000001110000000000000
0000000000000000000000000000000000000000000000000000011100000000000000
0000000000000001110000000000000000000000000000011100000000000000000000
0000000001110000000000000000000000000000000000000000000000000000000000
0001110000000000000000000000000000000000000000000000000000000000000000
0011100000000000000000000000000000111000000000000000000000000000001110
0000000000000000000000000000111000000000000000000000000000000000000000
0000000000000000000000111000000000000000000000000000000000000000000000
0000000000000000000001110000000000000000000000000000011100000000000000
0000000000000001110000000000000000000000000000011100000000000000000000
0000000000000000000000000000000000000000011100001111111111111111111111
1111111111111111111111111111111111111111111000000000000000000000000000
0011111111111111111111111111111111111000000000000000000000000000001111
1111111111111111111111111111100000000000000000000000000000001110011111
1111111111111111111111111111111111111111111111111111111111111000000000
0000000000000000000000111111111111111111111111111111111000000000000000
0000000000000001111111111111111111111111111111111000000000000000000000
0000000001110011111111111111111111111111111111111111111111111111111111
1111111111000000000000000000000000000000001111111111111111111111111111
1111000000000000000000000000000000111111111111111111111111111111111000
0000000000000000000000000000111001110000000000000000000000000000000000
0000000000000000000000000000000000000000000000000000000000000000000000
0000000000000000000000000000000000000000000000000000011100000000000000
0000000000000000000000000000000000000000000000011100111000000000000000
0000000000000000000000000000000000000000000000000000000000000000000000
0000000000000000000000000000000000000000000000000000000000000000000000
0011100000000000000000000000000000000000000000000000000000000000001110
0111000000000000000000000000000000000000000000000000000000000000000000
0000000000000000000000000000000000000000000000000000000000000000000000
0000000000000000000001110000000000000000000000000000000000000000000000
0000000000000001110011100000000000000000000000000000000000000000000000
0000000000000000000000000000000000000000000000000000000000000000000000
0000000000000000000000000000000000000000111000000000000000000000000000
0000000000000000000000000000000000111001110000000000000000000000000000
0000000000000000000000000000000000000000000000000000000000000000000000
0000000000000000000000000000000000000000000000000000000000011100000000
0000000000000000000000000000000000000000000000000000011100111000000000
0000000000000000000000000000000000000000000000000000000000000000000000
0000000000000000000000000000000000000000000000000000000000000000000000
0000000011100000000000000000000000000000000000000000000000000000000000
0011100111000000000000000000000000000000000000000000000000000000000000
0000000000000000000000000000000000000000000000000000000000000000000000
0000000000000000000000000001110000000000000000000000000000000000000000
0000000000000000000001110011100000000000000000000000000000000000000000
0000000000000000000000000000000000000000000000000000000000000000000000
0000000000000000000000000000000000000000000000111000000000000000000000
0000000000000000000000000000000000000000111001110000000000000000000000
0000000000000000000000000000000000000000000000000000000000000000000000
0000000000000000000000000000000000000000000000000000000000000000011100
0000000000000000000000000000000000000000000000000000000000011100111000
0000000000000000000000000000000000000000000000000000000000000000000000
0000000000000000000000000000000000000000000000000000000000000000000000
0000000000000011100000000000000000000000000000000000000000000000000000
0000000011100111000000000000000000000000000000000000000000000000000000
0000000000000000000000000000000000000000000000000000000000000000000000
0000000000000000000000000000000001110000000000000000000000000000000000
0000000000000000000000000001110011100000000000000000000000000000000000
0000000000000000000000000000000000000000000000000000000000000000000000
0000000000000000000000000000000000000000000000000000111000000000000000
0000000000000000000000000000000000000000000000111001110000000000000000
0000000000000000000000000000000000000000000000000000000000000000000000
0000000000000000000000000000000000000000000000000000000000000000000000
0111000000000000000000000000000000000000000000000000000000000000011100
1110000000000000000000000000000000000000000000000000000000000000000000
0000000000000000000000000000000000000000000000000000000000000000000000
0000000000000000000011100000000000000000000000000000000000000000000000
0000000000000011100111000000000000000000000000000000000000000000000000
0000000000000000000000000000000000000000000000000000000000000000000000
0000000000000000000000000000000000000001110000000000000000000000000000
0000000000000000000000000000000001110011100000000000000000000000000000
0000000000000000000000000000000000000000000000000000000000000000000000
0000000000000000000000000000000000000000000000000000000000111000000000
0000000000000000000000000000000000000000000000000000111001110000000000
0000000000000000000000000000000000000000000000000000000000000000000000
0000000000000000000000000000000000000000000000000000000000000000000000
0000000111000000000000000000000000000000000000000000000000000000000000
0111001110000000000000000000000000000000000000000000000000000000000000
0000000000000000000000000000000000000000000000000000000000000000000000
0000000000000000000000000011100000000000000000000000000000000000000000
0000000000000000000011100111000000000000000000000000000000000000000000
0000000000000000000000000000000000000000000000000000000000000000000000
0000000000000000000000000000000000000000000001110000000000000000000000
0000000000000000000000000000000000000001110011100000000000000000000000
0000000000000000000000000000000000000000000000000000000000000000000000
0000000000000000000000000000000000000000000000000000000000000000111000
0000000000000000000000000000000000000000000000000000000000111001110000
0000000000000000000000000000000000000000000000000000000000000000000000
0000000000000000000000000000000000000000000000000000000000000000000000
0000000000000111000000000000000000000000000000000000000000000000000000
0000000111001110000000000000000000000000000000000000000000000000000000
0000000000000000000000000000000000000000000000000000000000000000000000
0000000000000000000000000000000011100000000000000000000000000000000000
0000000000000000000000000011100111000000000000000000000000000000000000
0000000000000000000000000000000000000000000000000000000000000000000000
0000000000000000000000000000000000000000000000000001110000000000000000
0000000000000000000000000000000000000000000001110011100000000000000000
0000000000000000000000000000000000000000000000000000000000000000000000
0000000000000000000000000000000000000000000000000000000000000000000000
1110000000000000000000000000000000000000000000000000000000000000111001
1100000000000000000000000000000000000000000000000000000000000000000000
0000000000000000000000000000000000000000000000000000000000000000000000
0000000000000000000111000000000000000000000000000000000000000000000000
0000000000000111001110000000000000000000000000000000000000000000000000
0000000000000000000000000000000000000000000000000000000000000000000000
0000000000000000000000000000000000000011100000000000000000000000000000
0000000000000000000000000000000011100111000000000000000000000000000000
0000000000000000000000000000000000000000000000000000000000000000000000
0000000000000000000000000000000000000000000000000000000001110000000000
0000000000000000000000000000000000000000000000000001110011100000000000
0000000000000000000000000000000000000000000000000000000000000000000000
0000000000000000000000000000000000000000000000000000000000000000000000
0000001110000000000000000000000000000000000000000000000000000000000000
1110011100000000000000000000000000000000000000000000000000000000000000
0000000000000000000000000000000000000000000000000000000000000000000000
0000000000000000000000000111000000000000000000000000000000000000000000
0000000000000000000111001110000000000000000000000000000000000000000000
0000000000000000000000000000000000000000000000000000111111111111111111
1111111111111000000000000000000000000000000011100000000000000000000000
0000000011111111111111111111111111111111100111000000000000000000000000
0000001000000000000000000000000000000010000000000000000000000000000000
1111111111111111111111111111111111000000000000000000000000000001110000
0000000000000000000000000011111111111111111111111111111111110011100000
0000000000000000000000001110000000000000000000000000000011100000000000
0000000000000000000011111111111111111111111111111111100000000000000000
0000000000001110000000000000000000000000000000111111111111111111111111
1111111110011100000000000000000000000000000111000000000000000000000000
0000011100000000000000000000000000000000000000000000000000000000000001
1100000000000000000000000000000111000000000000000000000000000000000000
0000000000000000000000000111001110000000000000000000000000000011100000
0000000000000000000000001110000000000000000000000000000000000000000000
0000000000000000001110000000000000000000000000000011100000000000000000
0000000000000000000000000000000000000000000011100111000000000000000000
0000000000011100000000000000000000000000000111000000000000000000000000
0000000000000000000000000000000000000111000000000000000000000000000001
1100000000000000000000000000000000000000000000000000000000000001110011
1000000000000000000000000000001110000000000000000000000000000011100000
0000000000000000000000000000000000000000000000000000000011100000000000
0000000000000000001110000000000000000000000000000000000000000000000000
0000000000001110011100000000000000000000000000000111000000000000000000
0000000000011100000000000000000000000000000000000000000000000000000000
0000011100000000000000000000000000000111000000000000000000000000000000
0000000000000000000000000000000111001110000000000000000000000000000011
1000000000000000000000000000001110000000000000000000000000000000000000
0000000000000000000000001110000000000000000000000000000011100000000000
0000000000000000000000000000000000000000000000000011100111000000000000
0000000000000000011100000000000000000000000000000111000000000000000000
0000000000000000000000000000000000000000000111000000000000000000000000
0000011100000000000000000000000000000000000000000000000000000000000001
1100111000000000000000000000000000001110000000000000000000000000000011
1000000000000000000000000000000000000000000000000000000000000011100000
0000000000000000000000001110000000000000000000000000000000000000000000
0000000000000000001110011100000000000000000000000000000111000000000000
0000000000000000011100000000000000000000000000000000000000000000000000
0000000000011100000000000000000000000000000111000000000000000000000000
0000000000000000000000000000000000000111001110000000000000000000000000
0000111000000000000000000000000000001110000000000000000000000000000000
0000000000000000000000000000001110000000000000000000000000000011100000
0000000000000000000000000000000000000000000000000000000011100111000000
0000000000000000000000011100000000000000000000000000000111000000000000
0000000000000000000000000000000000000000000000000111000000000000000000
0000000000011100000000000000000000000000000000000000000000000000000000
0000011100111000000000000000000000000000001110000000000000000000000000
0000111000000000000000000000000000000000000000000000000000000000000011
1000000000000000000000000000001110000000000000000000000000000000000000
0000000000000000000000001110011100000000000000000000000000000111000000
0000000000000000000000011100000000000000000000000000000000000000000000
0000000000000000011100000000000000000000000000000111000000000000000000
0000000000000000000000000000000000000000000111001110000000000000000000
0000000000111000000000000000000000000000001110000000000000000000000000
0000000000000000000000000000000000001110000000000000000000000000000011
1000000000000000000000000000000000000000000000000000000000000011100111
0000000000000000000000000000011100000000000000000000000000000111000000
0000000000000000000000000000000000000000000000000000000111000000000000
0000000000000000011100000000000000000000000000000000000000000000000000
0000000000011100111000000000000000000000000000001110000000000000000000
0000000000111000000000000000000000000000000000000000000000000000000000
0000111000000000000000000000000000001110000000000000000000000000000000
0000000000000000000000000000001110011100000000000000000000000000000111
0000000000000000000000000000011100000000000000000000000000000000000000
0000000000000000000000011100000000000000000000000000000111000000000000
0000000000000000000000000000000000000000000000000111001110000000000000
0000000000000000111000000000000000000000000000001110000000000000000000
0000000000000000000000000000000000000000001110000000000000000000000000
0000111000000000000000000000000000000000000000000000000000000000000011
1001110000000000000000000000000000011100000000000000000000000000000111
0000000000000000000000000000000000000000000000000000000000000111000000
0000000000000000000000011100000000000000000000000000000000000000000000
0000000000000000011100111000000000000000000000000000001110000000000000
0000000000000000111000000000000000000000000000000000000000000000000000
0000000000111000000000000000000000000000001110000000000000000000000000
0000000000000000000000000000000000001110011100000000000000000000000000
0001110000000000000000000000000000011100000000000000000000000000000000
0000000000000000000000000000011100000000000000000000000000000111000000
0000000000000000000000000000000000000000000000000000000111001110000000
0000000000000000000000111000000000000000000000000000001110000000000000
0000000000000000000000000000000000000000000000001110000000000000000000
0000000000111000000000000000000000000000000000000000000000000000000000
0000111001110000000000000000000000000000011100000000000000000000000000
0001110000000000000000000000000000000000000000000000000000000000000111
0000000000000000000000000000011100000000000000000000000000000000000000
0000000000000000000000011100111000000000000000000000000000001110000000
0000000000000000000000111000000000000000000000000000000000000000000000
0000000000000000111000000000000000000000000000001110000000000000000000
0000000000000000000000000000000000000000001110011100000000000000000000
0000000001110000000000000000000000000000011100000000000000000000000000
0000000000000000000000000000000000011100000000000000000000000000000111
0000000000000000000000000000000000000000000000000000000000000111001110
0000000000000000000000000000111000000000000000000000000000001110000000
0000000000000000000000000000000000000000000000000000001110000000000000
0000000000000000111000000000000000000000000000000000000000000000000000
0000000000111001110000000000000000000000000000011100000000000000000000
0000000001110000000000000000000000000000000000000000000000000000000000
0001110000000000000000000000000000011100000000000000000000000000000000
0000000000000000000000000000011100111000000000000000000000000000001110
0000000000000000000000000000111000000000000000000000000000000000000000
0000000000000000000000111000000000000000000000000000001110000000000000
0000000000000000000000000000000000000000000000001110011100000000000000
0000000000000001110000000000000000000000000000011100000000000000000000
0000000000000000000000000000000000000000011100000000000000000000000000
0001110000000000000000000000000000000000000000000000000000000000000111
0011100000000000000000000000000000111000000000000000000000000000001111
1111111111111111111111111111100000000000000000000000000000001110000000
0000000000000000000000111111111111111111111111111111111000000000000000
0000000000000000111001110000000000000000000000000000011100000000000000
0000000000000000111111111111111111111111111111111100000000000000000000
0000000001110000000000000000000000000000011111111111111111111111111111
1111110000000000000000000000000000011100111000000000000000000000000000
0011100000000000000000000000000000001111111111111111111111111111111110
0000000000000000000000000000111000000000000000000000000000001111111111
1111111111111111111111111000000000000000000000000000001110011100000000
0000000000000000000001110000000000000000000000000000000000000000000000
0000000000000001110000000000000000000000000000011100000000000000000000
0000000001110000000000000000000000000000011100000000000000000000000000
0001110011100000000000000000000000000000111000000000000000000000000000
0000000000000000000000000000000000111000000000000000000000000000001110
0000000000000000000000000000111000000000000000000000000000001110000000
0000000000000000000000111001110000000000000000000000000000011100000000
0000000000000000000000000000000000000000000000000000011100000000000000
0000000000000001110000000000000000000000000000011100000000000000000000
0000000001110000000000000000000000000000011100111000000000000000000000
0000000011100000000000000000000000000000000000000000000000000000000000
0011100000000000000000000000000000111000000000000000000000000000001110
0000000000000000000000000000111000000000000000000000000000001110011100
0000000000000000000000000001110000000000000000000000000000000000000000
0000000000000000000001110000000000000000000000000000011100000000000000
0000000000000001110000000000000000000000000000011100000000000000000000
0000000001110011100000000000000000000000000000111000000000000000000000
0000000000000000000000000000000000000000111000000000000000000000000000
0011100000000000000000000000000000111000000000000000000000000000001110
0000000000000000000000000000111001110000000000000000000000000000011100
0000000000000000000000000000000000000000000000000000000000011100000000
0000000000000000000001110000000000000000000000000000011100000000000000
0000000000000001110000000000000000000000000000011100111000000000000000
0000000000000011100000000000000000000000000000000000000000000000000000
0000000011100000000000000000000000000000111000000000000000000000000000
0011100000000000000000000000000000111000000000000000000000000000001110
0111000000000000000000000000000001110000000000000000000000000000000000
0000000000000000000000000001110000000000000000000000000000011100000000
0000000000000000000001110000000000000000000000000000011100000000000000
0000000000000001110011100000000000000000000000000000111000000000000000
0000000000000000000000000000000000000000000000111000000000000000000000
0000000011100000000000000000000000000000111000000000000000000000000000
0011100000000000000000000000000000111001110000000000000000000000000000
0111000000000000000000000000000000000000000000000000000000000000011100
0000000000000000000000000001110000000000000000000000000000011100000000
0000000000000000000001110000000000000000000000000000011100111000000000
0000000000000000000011100000000000000000000000000000000000000000000000
0000000000000011100000000000000000000000000000111000000000000000000000
0000000011100000000000000000000000000000111000000000000000000000000000
0011100111000000000000000000000000000001110000000000000000000000000000
0000000000000000000000000000000001110000000000000000000000000000011100
0000000000000000000000000001110000000000000000000000000000011100000000
0000000000000000000001110011100000000000000000000000000000111000000000
0000000000000000000000000000000000000000000000000000111000000000000000
0000000000000011100000000000000000000000000000111000000000000000000000
0000000011100000000000000000000000000000111001110000000000000000000000
0000000111000000000000000000000000000000000000000000000000000000000000
0111000000000000000000000000000001110000000000000000000000000000011100
0000000000000000000000000001110000000000000000000000000000011100111000
0000000000000000000000000011100000000000000000000000000000000000000000
0000000000000000000011100000000000000000000000000000111000000000000000
0000000000000011100000000000000000000000000000111000000000000000000000
0000000011100111000000000000000000000000000001110000000000000000000000
0000000000000000000000000000000000000001110000000000000000000000000000
0111000000000000000000000000000001110000000000000000000000000000011100
0000000000000000000000000001110011100000000000000000000000000000111000
0000000000000000000000000000000000000000000000000000000000111000000000
0000000000000000000011100000000000000000000000000000111000000000000000
0000000000000011100000000000000000000000000000111001110000000000000000
0000000000000111000000000000000000000000000000000000000000000000000000
0000000111000000000000000000000000000001110000000000000000000000000000
0111000000000000000000000000000001110000000000000000000000000000011100
1110000000000000000000000000000011100000000000000000000000000000000000
0000000000000000000000000011100000000000000000000000000000111000000000
0000000000000000000011100000000000000000000000000000111000000000000000
0000000000000011100111000000000000000000000000000001110000000000000000
0000000000000000000000000000000000000000000001110000000000000000000000
0000000111000000000000000000000000000001110000000000000000000000000000
0111000000000000000000000000000001110011100000000000000000000000000000
1110000000000000000000000000000000000000000000000000000000000000111000
0000000000000000000000000011100000000000000000000000000000111000000000
0000000000000000000011100000000000000000000000000000111001110000000000
0000000000000000000111000000000000000000000000000000000000000000000000
0000000000000111000000000000000000000000000001110000000000000000000000
0000000111000000000000000000000000000001110000000000000000000000000000
0111001110000000000000000000000000000011100000000000000000000000000000
0000000000000000000000000000000011100000000000000000000000000000111000
0000000000000000000000000011100000000000000000000000000000111000000000
0000000000000000000011100111000000000000000000000000000001110000000000
0000000000000000000000000000000000000000000000000001110000000000000000
0000000000000111000000000000000000000000000001110000000000000000000000
0000000111000000000000000000000000000001110011100000000000000000000000
0000001110000000000000000000000000000000000000000000000000000000000000
1110000000000000000000000000000011100000000000000000000000000000111000
0000000000000000000000000011100000000000000000000000000000111001110000
0000000000000000000000000111000000000000000000000000000000000000000000
0000000000000000000111000000000000000000000000000001110000000000000000
0000000000000111000000000000000000000000000001110000000000000000000000
0000000111001110000000000000000000000000000011100000000000000000000000
0000000000000000000000000000000000000011100000000000000000000000000000
1110000000000000000000000000000011100000000000000000000000000000111000
0000000000000000000000000011100111000000000000000000000000000001110000
0000000000000000000000000000000000000000000000000000000001110000000000
0000000000000000000111000000000000000000000000000001110000000000000000
0000000000000111000000000000000000000000000001110011100000000000000000
0000000000001111111111111111111111111111111110000000000000000000000000
0000001111111111111111111111111111111111100000000000000000000000000000
1110000000000000000000000000000011100000000000000000000000000000111001
1100000000000000000000000000000011111111111111111111111111111111110000
0000000000000000000000000011111111111111111111111111111111110000000000
0000000000000000000010000000000000000000000000000001110000000000000000
0000000000000010001110000000000000000000000000000000111111111111111111
1111111111111110000000000000000000000000000000111111111111111111111111
1111111110000000000000000000000000000000000000000000000000000000000000
1110000000000000000000000000000000000111000000000000000000000000000000
0000000000000000000000000000000111000000000000000000000000000000000000
0000000000000000000000000111000000000000000000000000000000000000000000
0000000000000000000111000000000000000000000000000000000011100000000000
0000000000000000000000000000000000000000000000000011100000000000000000
0000000000000000000000000000000000000000000011100000000000000000000000
0000000000000000000000000000000000000011100000000000000000000000000000
0000011100000000000000000000000000000000000000000000000000000000000001
1100000000000000000000000000000000000000000000000000000000000001110000
0000000000000000000000000000000000000000000000000000000001110000000000
0000000000000000000000001110000000000000000000000000000000000000000000
0000000000000000001110000000000000000000000000000000000000000000000000
0000000000001110000000000000000000000000000000000000000000000000000000
0000001110000000000000000000000000000000000111000000000000000000000000
0000000000000000000000000000000000000111000000000000000000000000000000
0000000000000000000000000000000111000000000000000000000000000000000000
0000000000000000000000000111000000000000000000000000000000000011100000
0000000000000000000000000000000000000000000000000000000011100000000000
0000000000000000000000000000000000000000000000000011100000000000000000
0000000000000000000000000000000000000000000011100000000000000000000000
0000000000011100000000000000000000000000000000000000000000000000000000
0000011100000000000000000000000000000000000000000000000000000000000001
1100000000000000000000000000000000000000000000000000000000000001110000
0000000000000000000000000000001110000000000000000000000000000000000000
0000000000000000000000001110000000000000000000000000000000000000000000
0000000000000000001110000000000000000000000000000000000000000000000000
0000000000001110000000000000000000000000000000000111000000000000000000
0000000000000000000000000000000000000000000111000000000000000000000000
0000000000000000000000000000000000000111000000000000000000000000000000
0000000000000000000000000000000111000000000000000000000000000000000011
1000000000000000000000000000000000000000000000000000000000000011100000
0000000000000000000000000000000000000000000000000000000011100000000000
0000000000000000000000000000000000000000000000000011100000000000000000
0000000000000000011100000000000000000000000000000000000000000000000000
0000000000011100000000000000000000000000000000000000000000000000000000
0000011100000000000000000000000000000000000000000000000000000000000001
1100000000000000000000000000000000001110000000000000000000000000000000
0000000000000000000000000000001110000000000000000000000000000000000000
0000000000000000000000001110000000000000000000000000000000000000000000
0000000000000000001110000000000000000000000000000000000111000000000000
0000000000000000000000000000000000000000000000000111000000000000000000
0000000000000000000000000000000000000000000111000000000000000000000000
0000000000000000000000000000000000000111000000000000000000000000000000
0000111000000000000000000000000000000000000000000000000000000000000011
1000000000000000000000000000000000000000000000000000000000000011100000
0000000000000000000000000000000000000000000000000000000011100000000000
0000000000000000000000011100000000000000000000000000000000000000000000
0000000000000000011100000000000000000000000000000000000000000000000000
0000000000011100000000000000000000000000000000000000000000000000000000
0000011100000000000000000000000000000000001110000000000000000000000000
0000000000000000000000000000000000001110000000000000000000000000000000
0000000000000000000000000000001110000000000000000000000000000000000000
0000000000000000000000001110000000000000000000000000000000000111000000
0000000000000000000000000000000000000000000000000000000111000000000000
0000000000000000000000000000000000000000000000000111000000000000000000
0000000000000000000000000000000000000000000111000000000000000000000000
0000000000111000000000000000000000000000000000000000000000000000000000
0000111000000000000000000000000000000000000000000000000000000000000011
1000000000000000000000000000000000000000000000000000000000000011100000
0000000000000000000000000000011100000000000000000000000000000000000000
0000000000000000000000011100000000000000000000000000000000000000000000
0000000000000000011100000000000000000000000000000000000000000000000000
0000000000011100000000000000000000000000000000001110000000000000000000
0000000000000000000000000000000000000000001110000000000000000000000000
0000000000000000000000000000000000001110000000000000000000000000000000
0000000000000000000000000000001110000000000000000000000000000000000111
0000000000000000000000000000000000000000000000000000000000000111000000
0000000000000000000000000000000000000000000000000000000111000000000000
0000000000000000000000000000000000000000000000000111000000000000000000
0000000000000000111000000000000000000000000000000000000000000000000000
0000000000111000000000000000000000000000000000000000000000000000000000
0000111000000000000000000000000000000000000000000000000000000000000011
1000000000000000000000000000000000011100000000000000000000000000000000
0000000000000000000000000000011100000000000000000000000000000000000000
0000000000000000000000011100000000000000000000000000000000000000000000
0000000000000000011100000000000000000000000000000000001110000000000000
0000000000000000000000000000000000000000000000001110000000000000000000
0000000000000000000000000000000000000000001110000000000000000000000000
0000000000000000000000000000000000001110000000000000000000000000000000
0001110000000000000000000000000000000000000000000000000000000000000111
0000000000000000000000000000000000000000000000000000000000000111000000
0000000000000000000000000000000000000000000000000000000111000000000000
0000000000000000000000111000000000000000000000000000000000000000000000
0000000000000000111000000000000000000000000000000000000000000000000000
0000000000111000000000000000000000000000000000000000000000000000000000
0000111000000000000000000000000000000000011100000000000000000000000000
0000000000000000000000000000000000011100000000000000000000000000000000
0000000000000000000000000000011100000000000000000000000000000000000000
0000000000000000000000011100000000000000000000000000000000001110000000
0000000000000000000000000000000000000000000000000000001110000000000000
0000000000000000000000000000000000000000000000001110000000000000000000
0000000000000000000000000000000000000000001110000000000000000000000000
0000000001110000000000000000000000000000000000000000000000000000000000
0001110000000000000000000000000000000000000000000000000000000000000111
0000000000000000000000000000000000000000000000000000000000000111000000
0000000000000000000000000000111111111111111111111111111111111111111111
1111111111111111111111111111111111111111111111111111111111111111111111
1111111111111111111111111111111111111111111111111111111111111111111111
1111111111111111111111111111111111111111111000001111111111111111111111
1111111111111111111111111111111111111111111111111111111111111111111111
1111111111111111111111111111111111111111111111111111111111111111111111
1111111111111111111111111111111111111111111111111111111111111110000011
1111111111111111111111111111111111111111111111111111111111111111111111
1111111111111111111111111111111111111111111111111111111111111111111111
1111111111111111111111111111111111111111111111111111111111111111111111
1111111111100000000000000000000000000000000000000000000000000000000000
0000000000000000000000000000000000000000000000000000000000000000000000
0000000000000000000000000000000000000000000000000000000000000000000000
000000000000000000000000000000000
