P1
#Created by UTFSM ELO329
229 197
0000000000000000000000000000000000000000000000000000000000000000000000000000000000000000000000000000000000000000000000000000000000000000000000000000000000000000000000000000000000000000000000000000000000000000000000000000000000000
0001111111111111111111111111111111111111111111111111111111111111111111111111111111111111111111111111111111111111111111111111111111111111111111111111111111111111111111111111111111111111111111111111111111111111111111111111111111000
0111111111111111111111111111111111111111111111111111111111111111111111111111111111111111111111111111111111111111111111111111111111111111111111111111111111111111111111111111111111111111111111111111111111111111111111111111111111110
0111111111111111111111111111111111111111111111111111111111111111111111111111111111111111111111111111111111111111111111111111111111111111111111111111111111111111111111111111111111111111111111111111111111111111111111111111111111110
0111000000000000000000000000000000000000000000000000000000000000000000000000000000000000000000000000000000000000000000000000000001110000000000000000000000000000000000000000000000000000000000000000000000000000000000000000000001110
0111000000000000000000000000000000000000000000000000000000000000000000000000000000000000000000000000000000000000000000000000000001110000000000000000000000000000000000000000000000000000000000000000000000000000000000000000000001110
0111111111111111111111111111111111111111111111111111111111111111111111111111111111111111111111111111111111111111111111111111111001111111111111111111111111111111111111111111111111111111111111111111111111111111111111111111111001110
0111100000000000000000000000000000000000000000000000000000000000000000000000000000000000000000000000000000000000000000000000001001111000000000000000000000000000000000000000000000000000000000000000000000000000000000000000001001110
0111100000000000000000000000000000000000000000000000000000000000000000000000000000000000000000000000000000000000000000000000001001111000000000000000000000000000000000000000000000000000000000000000000000000000000000000000001001110
0111100000000000000000000000000000000000000000000000000000000000000000000000000000000000000000000000000000000000000000000000001001111000000000000000000000000000000000000000000000000000000000000000000000000000000000000000001001110
0111100000000000000000000000000000000000000000000000000000000000000000000000000000000000000000000000000000000000000000000000001001111000000000000000000000000000000000000000000000000000000000000000000000000000000000000000001001110
0111100000000000000000000000000000000000000000000000000000000000000000000000000000000000000000000000000000000000000000000000001001111000000000000000000000000000000000000000000000000000000000000000000000000000000000000000001001110
0111100000000000000000000000000000000000000000000000000000000000000000000000000000000000000000000000000000000000000000000000001001111000000000000000000000000000000000000000000000000000000000000000000000000000000000000000001001110
0111100000000000000000000000000000000000000000000000000000000000000000000000000000000000000000000000000000000000000000000000001001111000000000000000000000000000000000000000000000000000000000000000000000000000000000000000001001110
0111100000000000000000000000000000000000000000000000000000000000000000000000000000000000000000000000000000000000000000000000001001111000000000000000000000000000000000000000000000000000000000000000000000000000000000000000001001110
0111100000000000000000000000000000000000000000000000000000000000000000000000000000000000000000000000000000000000000000000000001001111000000000000000000000000000000000000000000000000000000000000000000000000000000000000000001001110
0111100000000000000000000000000000000000000000000000000000000000000000000000000000000000000000000000000000000000000000000000001001111000000000000000000000000000000000000000000000000000000000000000000000000000000000000000001001110
0111100000000000000000000000000000000000000000000000000000000000000000000000000000000000000000000000000000000000000000000000001001111000000000000000000000000000000000000000000000000000000000000000000000000000000000000000001001110
0111100000000000000000000000000000000000000000000000000000000000000000000000000000000000000000000000000000000000000000000000001001111000000000000000000000000000000000000000000000000000000000000000000000000000000000000000001001110
0111100000000000000000000000000000000000000000000000000000000000000000000000000000000000000000000000000000000000000000000000001001111000000000000000000000000000000000000000000000000000000000000000000000000000000000000000001001110
0111100000000000000000000000000000000000000000000000000000000000000000000000000000000000000000000000000000000000000000000000001001111000000000000000000000000000000000000000000000000000000000000000000000000000000000000000001001110
0111100000000000000000000000000000000000000000000000000000000000000000000000000000000000000000000000000000000000000000000000001001111000000000000000000000000000000000000000000000000000000000000000000000000000000000000000001001110
0111100000000000000000000000000000000000000000000000000000000000000000000000000000000000000000000000000000000000000000000000001001111000000000000000000000000000000000000000000000000000000000000000000000000000000000000000001001110
0111100000000000000000000000000000000000000000000000000000000000000000000000000000000000000000000000000000000000000000000000001001111000000000000000000000000000000000000000000000000000000000000000000000000000000000000000001001110
0111100000000000000000000000000000000000000000000000000000000000000000000000000000000000000000000000000000000000000000000000001001111000000000000000000000000000000000000000000000000000000000000000000000000000000000000000001001110
0111100000000000000000000000000000000000000000000000000000000000000000000000000000000000000000000000000000000000000000000000001001111000000000000000000000000000000000000000000000000000000000000000000000000000000000000000001001110
0111100000000000000000000000000000000000000000000000000000000000000000000000000000000000000000000000000000000000000000000000001001111000000000000000000000000000000000000000000000000000000000000000000000000000000000000000001001110
0111100000000000000000000000000000000000000000000000000000000000000000000000000000000000000000000000000000000000000000000000001001111000000000000000000000000000000000000000000000000000000000000000000000000000000000000000001001110
0111100000000000000000000000000000000000000000000000000000000000000000000000000000000000000000000000000000000000000000000000001001111000000000000000000000000000000000000000000000000000000000000000000000000000000000000000001001110
0111100000000000000000000000000000000000000000000000000000000000000000000000000000000000000000000000000000000000000000000000001001111000000000000000000000000000000000000000000000000000000000000000000000000000000000000000001001110
0111100000000000000000000000000000000000000000000000000000000000000000000000000000000000000000000000000000000000000000000000001001111000000000000000000000000000000000000000000000000000000000000011111111111111111111111111111001110
0111100000000000000000000000000000000000000000000000000000000000000000000000000000000000000000000000000000000000000000000000001001111000000000000000000000000000000000000000000000000000000000000110000000000000000000000000000001110
0111100000000000000000000000000000000000000000000000000000000000000000000000000000000000000000000000000000000000000000000000001001111000000000000000000000000000000000000000000000000000000000000100000000000000000000000000000001110
0111100000000000000000000000000000011111111111111111111111111111110000000000000000000000000000001111110000000000000000000000001001111000000000000000000000000000000000000000000000000000000000000101111111111111111111111111111111110
0010100000000000000000000000000000111111111111111111111111111111111100000000000000000000000000001010011000000000000000000000001001111000000000000000000000000000001000000000000000000000000000000111111111111111111111111111111111110
0000100000000000000000000000000000011111111111111111111111111111111100000000000000000000000000001111001000000000000000000000001001111000000000000000000000000000011100000000000000000000000000000101111111111111111111111111111111110
0111100000000000000000000000000000000000000000000000000000000000011100000000000000000000000000001111001000000000000000000000001001111000000000000000000000000000011100000000000000000000000000000111111111111111111111111111111001110
0100000000000000000000000000000000000000000000000000000000000000011100000000000000000000000000001111001000000000000000000000001001111000000000000000000000000000011100000000000000000000000000000000000000000000000000000000001001110
0100000000000000000000000000000000000000000000000000000000000000011100000000000000000000000000001111001000000000000000000000001001111000000000000000000000000000011100000000000000000000000000000000000000000000000000000000001001110
0100000000000000000000000000000000000000000000000000000000000000011100000000000000000000000000001111001000000000000000000000001001111000000000000000000000000000011100000000000000000000000000000000000000000000000000000000001001110
0101111111111111111111111111111111111111111111111111111111111110011100000000000000000000000000001111001000000000000000000000001001111000000000000000000000000000011100000000000000000000000000000000000000000000000000000000001001110
0100000000000000000000000000000000000000000000000000000000000010011100000000000000000000000000001111001000000000000000000000001001111000000000000000000000000000011100000000000000000000000000000000000000000000000000000000001001110
0100000000000000000000000000000000000000000000000000000000000010011100000000000000000000000000001111001000000000000000000000001001111000000000000000000000000000011100000000000000000000000000000000000000000000000000000000001001110
0100000000000000000000000000000000000000000000000000000000000010011100000000000000000000000000001111001000000000000000000000001001111000000000000000000000000000011100000000000000000000000000000000000000000000000000000000001001110
0100000000000000000000000000000000000000000000000000000000000010011100000000000000000000000000001111001000000000000000000000001001111000000000000000000000000000011100000000000000000000000000000000000000000000000000000000001001110
0100000000000000000000000000000000000000000000000000000000000010011100000000000000000000000000001111001000000000000000000000001001111000000000000000000000000000011100000000000000000000000000000000000000000000000000000000001001110
0100000000000000000000000000000000000000000000000000000000000010011100000000000000000000000000001111001000000000000000000000001001111000000000000000000000000000011100000000000000000000000000000000000000000000000000000000001001110
0100000000000000000000000000000000000000000000000000000000000010011100000000000000000000000000001111001000000000000000000000001001111000000000000000000000000000011100000000000000000000000000000000000000000000000000000000001001110
0100000000000000000000000000000000000000000000000000000000000010011100000000000000000000000000001111001000000000000000000000001001111000000000000000000000000000011100000000000000000000000000000000000000000000000000000000001001110
0100000000000000000000000000000000000000000000000000000000000010011100000000000000000000000000001111001000000000000000000000001001111000000000000000000000000000011100000000000000000000000000000000000000000000000000000000001001110
0100000000000000000000000000000000000000000000000000000000000010011100000000000000000000000000001111001000000000000000000000001001111000000000000000000000000000011100000000000000000000000000000000000000000000000000000000001001110
0100000000000000000000000000000000000000000000000000000000000010011100000000000000000000000000001111001000000000000000000000001001111000000000000000000000000000011100000000000000000000000000000000000000000000000000000000001001110
0100000000000000000000000000000000000000000000000000000000000010011100000000000000000000000000001111001000000000000000000000001001111000000000000000000000000000011100000000000000000000000000000000000000000000000000000000001001110
0100000000000000000000000000000000000000000000000000000000000010011100000000000000000000000000001111001000000000000000000000001001111000000000000000000000000000011100000000000000000000000000000000000000000000000000000000001001110
0100000000000000000000000000000000000000000000000000000000000010011100000000000000000000000000001111001000000000000000000000001001111000000000000000000000000000011100000000000000000000000000000000000000000000000000000000001001110
0100000000000000000000000000000000000000000000000000000000000010011100000000000000000000000000001111001000000000000000000000001001111000000000000000000000000000011100000000000000000000000000000000000000000000000000000000001001110
0100000000000000000000000000000000000000000000000000000000000010011100000000000000000000000000001111001000000000000000000000001001111000000000000000000000000000011100000000000000000000000000000000000000000000000000000000001001110
0100000000000000000000000000000000000000000000000000000000000010011100000000000000000000000000001111001000000000000000000000001001111000000000000000000000000000011100000000000000000000000000000000000000000000000000000000001001110
0100000000000000000000000000000000000000000000000000000000000010011100000000000000000000000000001111001000000000000000000000001001111000000000000000000000000000011100000000000000000000000000000000000000000000000000000000001001110
0100000000000000000000000000000000000000000000000000000000000010011100000000000000000000000000001111001000000000000000000000001001111000000000000000000000000000011100000000000000000000000000000000000000000000000000000000001001110
0100000000000000000000000000000000000000000000000000000000000010011100000000000000000000000000001111001000000000000000000000001001111000000000000000000000000000011100000000000000000000000000000000000000000000000000000000001001110
0100000000000000000000000000000000000000000000000000000000000010011100000000000000000000000000001111001000000000000000000000001001111000000000000000000000000000011100000000000000000000000000000000000000000000000000000000001001110
0111111111111111111111111111111111111111111111111111111111111110011100000000000000000000000000001111001111111111111111111111111001111000000000000000000000000000011100000000000000000000000000000000000000000000000000000000001001110
0110000000000000000000000000000000000000000000000000000000000000011100000000000000000000000000001111000000000000000000000000000001111000000000000000000000000000011100000000000000000000000000000000000000000000000000000000001001110
0000000000000000000000000000000000000000000000000000000000000000011100000000000000000000000000001111000000000000000000000000000001111000000000000000000000000000011100000000000000000000000000000000000000000000000000000000001001110
0001111111111111111111111111111111111111111111111111111111111111111100000000000000000000000000001111111111111111111111111111111111111000000000000000000000000000011111111111111111111111111111111100000000000000000000000000001001110
0111111111111111111111111111111111111111111111111111111111111111111000000000000000000000000000001011111111111111111111111111111111101000000000000000000000000000011111111111111111111111111111111110000000000000000000000000001001110
0111111111111111111111111111111111111111111111111111111111111111111000000000000000000000000000001001111111111111111111111111111111101000000000000000000000000000011111111111111111111111111111111100000000000000000000000000001001110
0111000000000000000000000000000000000000000000000000000000000000000000000000000000000000000000001111111111111111111111111111111111111000000000000000000000000000011100000000000000000000000000000000000000000000000000000000001001110
0111000000000000000000000000000000000000000000000000000000000000000000000000000000000000000000000000000000000000000000000000000000000000000000000000000000000000011100000000000000000000000000000000000000000000000000000000001001110
0111000000000000000000000000000000000000000000000000000000000000000000000000000000000000000000000000000000000000000000000000000000000000000000000000000000000000011100000000000000000000000000000000000000000000000000000000001001110
0111000000000000000000000000000000000000000000000000000000000000000000000000000000000000000000000000000000000000000000000000000000000000000000000000000000000000011100000000000000000000000000000000000000000000000000000000001001110
0111000000000000000000000000000000000000000000000000000000000000000000000000000000000000000000000000000000000000000000000000000000000000000000000000000000000000011100000000000000000000000000000000000000000000000000000000001001110
0111000000000000000000000000000000000000000000000000000000000000000000000000000000000000000000000000000000000000000000000000000000000000000000000000000000000000011100000000000000000000000000000000000000000000000000000000001001110
0111000000000000000000000000000000000000000000000000000000000000000000000000000000000000000000000000000000000000000000000000000000000000000000000000000000000000011100000000000000000000000000000000000000000000000000000000001001110
0111000000000000000000000000000000000000000000000000000000000000000000000000000000000000000000000000000000000000000000000000000000000000000000000000000000000000011100000000000000000000000000000000000000000000000000000000001001110
0111000000000000000000000000000000000000000000000000000000000000000000000000000000000000000000000000000000000000000000000000000000000000000000000000000000000000011100000000000000000000000000000000000000000000000000000000001001110
0111000000000000000000000000000000000000000000000000000000000000000000000000000000000000000000000000000000000000000000000000000000000000000000000000000000000000011100000000000000000000000000000000000000000000000000000000001001110
0111000000000000000000000000000000000000000000000000000000000000000000000000000000000000000000000000000000000000000000000000000000000000000000000000000000000000011100000000000000000000000000000000000000000000000000000000001001110
0111000000000000000000000000000000000000000000000000000000000000000000000000000000000000000000000000000000000000000000000000000000000000000000000000000000000000011100000000000000000000000000000000000000000000000000000000001001110
0111000000000000000000000000000000000000000000000000000000000000000000000000000000000000000000000000000000000000000000000000000000000000000000000000000000000000011100000000000000000000000000000000000000000000000000000000001001110
0111000000000000000000000000000000000000000000000000000000000000000000000000000000000000000000000000000000000000000000000000000000000000000000000000000000000000011100000000000000000000000000000000000000000000000000000000001001110
0111000000000000000000000000000000000000000000000000000000000000000000000000000000000000000000000000000000000000000000000000000000000000000000000000000000000000011100000000000000000000000000000000000000000000000000000000001001110
0111000000000000000000000000000000000000000000000000000000000000000000000000000000000000000000000000000000000000000000000000000000000000000000000000000000000000011100000000000000000000000000000000000000000000000000000000001001110
0111000000000000000000000000000000000000000000000000000000000000000000000000000000000000000000000000000000000000000000000000000000000000000000000000000000000000011100000000000000000000000000000000000000000000000000000000001001110
0111000000000000000000000000000000000000000000000000000000000000000000000000000000000000000000000000000000000000000000000000000000000000000000000000000000000000011100000000000000000000000000000000000000000000000000000000001001110
0111000000000000000000000000000000000000000000000000000000000000000000000000000000000000000000000000000000000000000000000000000000000000000000000000000000000000011100000000000000000000000000000000000000000000000000000000001001110
0111000000000000000000000000000000000000000000000000000000000000000000000000000000000000000000000000000000000000000000000000000000000000000000000000000000000000011100000000000000000000000000000000000000000000000000000000001001110
0111000000000000000000000000000000000000000000000000000000000000000000000000000000000000000000000000000000000000000000000000000000000000000000000000000000000000011100000000000000000000000000000000000000000000000000000000001001110
0111000000000000000000000000000000000000000000000000000000000000000000000000000000000000000000000000000000000000000000000000000000000000000000000000000000000000011100000000000000000000000000000000000000000000000000000000001001110
0111000000000000000000000000000000000000000000000000000000000000000000000000000000000000000000000000000000000000000000000000000000000000000000000000000000000000011100000000000000000000000000000000000000000000000000000000001001110
0111000000000000000000000000000000000000000000000000000000000000000000000000000000000000000000000000000000000000000000000000000000000000000000000000000000000000011100000000000000000000000000000000000000000000000000000000001001110
0111000000000000000000000000000000000000000000000000000000000000000000000000000000000000000000000000000000000000000000000000000000000000000000000000000000000000011100000000000000000000000000000000000000000000000000000000001001110
0111000000000000000000000000000000000000000000000000000000000000000000000000000000000000000000000000000000000000000000000000000000000000000000000000000000000000011100000000000000000000000000000000000000000000000000000000001001110
0111000000000000000000000000000000000000000000000000000000000000000000000000000000000000000000000000000000000000000000000000000000000000000000000000000000000000011100000000000000000000000000000011111111111111111111111111111001110
0111000000000000000000000000000000000000000000000000000000000000000000000000000000000000000000000000000000000000000000000000000000000000000000000000000000000000011100000000000000000000000000000110000000000000000000000000000001110
0111000000000000000000000000000000000000000000000000000000000000000000000000000000000000000000000000000000000000000000000000000000000000000000000000000000000000011100000000000000000000000000000100000000000000000000000000000001110
0111000000000000000000000000000000000000000000000000000000000000000000000000000000000000000000000001111111111111111111111111111111000000000000000000000000000000011100000000000000000000000000000101111111111111111111111111111111110
0111000000000000000000000000000000100000000000000000000000000000001000000000000000000000000000000011111111111111111111111111111111110000000000000000000000000000011100000000000000000000000000000111111111111111111111111111111111110
0111000000000000000000000000000001110000000000000000000000000000011100000000000000000000000000000001111111111111111111111111111111110000000000000000000000000000011100000000000000000000000000000101111111111111111111111111111111110
0111000000000000000000000000000001110000000000000000000000000000011100000000000000000000000000000000000000000000000000000000000001110000000000000000000000000000011100000000000000000000000000000111111111111111111111111111111001110
0111000000000000000000000000000001110000000000000000000000000000011100000000000000000000000000000000000000000000000000000000000001110000000000000000000000000000011100000000000000000000000000000000000000000000000000000000001001110
0111000000000000000000000000000001110000000000000000000000000000011100000000000000000000000000000000000000000000000000000000000001110000000000000000000000000000011100000000000000000000000000000000000000000000000000000000001001110
0111000000000000000000000000000001110000000000000000000000000000011100000000000000000000000000000000000000000000000000000000000001110000000000000000000000000000011100000000000000000000000000000000000000000000000000000000001001110
0111000000000000000000000000000001110000000000000000000000000000011100000000000000000000000000000000000000000000000000000000000001110000000000000000000000000000011100000000000000000000000000000000000000000000000000000000001001110
0111000000000000000000000000000001110000000000000000000000000000011100000000000000000000000000000000000000000000000000000000000001110000000000000000000000000000011100000000000000000000000000000000000000000000000000000000001001110
0111000000000000000000000000000001110000000000000000000000000000011100000000000000000000000000000000000000000000000000000000000001110000000000000000000000000000011100000000000000000000000000000000000000000000000000000000001001110
0111000000000000000000000000000001110000000000000000000000000000011100000000000000000000000000000000000000000000000000000000000001110000000000000000000000000000011100000000000000000000000000000000000000000000000000000000001001110
0111000000000000000000000000000001110000000000000000000000000000011100000000000000000000000000000000000000000000000000000000000001110000000000000000000000000000011100000000000000000000000000000000000000000000000000000000001001110
0111000000000000000000000000000001110000000000000000000000000000011100000000000000000000000000000000000000000000000000000000000001110000000000000000000000000000011100000000000000000000000000000000000000000000000000000000001001110
0111000000000000000000000000000001110000000000000000000000000000011100000000000000000000000000000000000000000000000000000000000001110000000000000000000000000000011100000000000000000000000000000000000000000000000000000000001001110
0111000000000000000000000000000001110000000000000000000000000000011100000000000000000000000000000000000000000000000000000000000001110000000000000000000000000000011100000000000000000000000000000000000000000000000000000000001001110
0111000000000000000000000000000001110000000000000000000000000000011100000000000000000000000000000000000000000000000000000000000001110000000000000000000000000000011100000000000000000000000000000000000000000000000000000000001001110
0111000000000000000000000000000001110000000000000000000000000000011100000000000000000000000000000000000000000000000000000000000001110000000000000000000000000000011100000000000000000000000000000000000000000000000000000000001001110
0111000000000000000000000000000001110000000000000000000000000000011100000000000000000000000000000000000000000000000000000000000001110000000000000000000000000000011100000000000000000000000000000000000000000000000000000000001001110
0111000000000000000000000000000001110000000000000000000000000000011100000000000000000000000000000000000000000000000000000000000001110000000000000000000000000000011100000000000000000000000000000000000000000000000000000000001001110
0111000000000000000000000000000001110000000000000000000000000000011100000000000000000000000000000000000000000000000000000000000001110000000000000000000000000000011100000000000000000000000000000000000000000000000000000000001001110
0111000000000000000000000000000001110000000000000000000000000000011100000000000000000000000000000000000000000000000000000000000001110000000000000000000000000000011100000000000000000000000000000000000000000000000000000000001001110
0111000000000000000000000000000001110000000000000000000000000000011100000000000000000000000000000000000000000000000000000000000001110000000000000000000000000000011100000000000000000000000000000000000000000000000000000000001001110
0111000000000000000000000000000001110000000000000000000000000000011100000000000000000000000000000000000000000000000000000000000001110000000000000000000000000000011100000000000000000000000000000000000000000000000000000000001001110
0111000000000000000000000000000001110000000000000000000000000000011100000000000000000000000000000000000000000000000000000000000001110000000000000000000000000000011100000000000000000000000000000000000000000000000000000000001001110
0111000000000000000000000000000001110000000000000000000000000000011100000000000000000000000000000000000000000000000000000000000001110000000000000000000000000000011100000000000000000000000000000000000000000000000000000000001001110
0111000000000000000000000000000001110000000000000000000000000000011100000000000000000000000000000000000000000000000000000000000001110000000000000000000000000000011100000000000000000000000000000000000000000000000000000000001001110
0111000000000000000000000000000001110000000000000000000000000000011100000000000000000000000000000000000000000000000000000000000001110000000000000000000000000000011100000000000000000000000000000000000000000000000000000000001001110
0111000000000000000000000000000001110000000000000000000000000000011100000000000000000000000000000000000000000000000000000000000001110000000000000000000000000000011100000000000000000000000000000000000000000000000000000000001001110
0111000000000000000000000000000001110000000000000000000000000000011100000000000000000000000000000000000000000000000000000000000001110000000000000000000000000000011100000000000000000000000000000000000000000000000000000000001001110
0111000000000000000000000000000001110000000000000000000000000000011100000000000000000000000000000000000000000000000000000000000001110000000000000000000000000000011100000000000000000000000000000000000000000000000000000000001001110
0111000000000000000000000000000001110000000000000000000000000000011100000000000000000000000000000000000000000000000000000000000001110000000000000000000000000000011100000000000000000000000000000000000000000000000000000000001001110
0111000000000000000000000000000001110000000000000000000000000000011100000000000000000000000000000000000000000000000000000000000001110000000000000000000000000000011100000000000000000000000000000000000000000000000000000000001001110
0111000000000000000000000000000001110000000000000000000000000000011111111111111111111111111111111100000000000000000000000000000001110000000000000000000000000000011111111111111111111111111111111100000000000000000000000000001001110
0111000000000000000000000000000001110000000000000000000000000000001111111111111111111111111111111111000000000000000000000000000001110000000000000000000000000000011111111111111111111111111111111111000000000000000000000000001001110
0111000000000000000000000000000001110000000000000000000000000000000111111111111111111111111111111111000000000000000000000000000001110000000000000000000000000000011111111111111111111111111111111111000000000000000000000000001001110
0111000000000000000000000000000001110000000000000000000000000000000000000000000000000000000000000111000000000000000000000000000001110000000000000000000000000000011100000000000000000000000000000111000000000000000000000000001001110
0111000000000000000000000000000001110000000000000000000000000000000000000000000000000000000000000111000000000000000000000000000001110000000000000000000000000000011100000000000000000000000000000111000000000000000000000000001001110
0111000000000000000000000000000001110000000000000000000000000000000000000000000000000000000000000111000000000000000000000000000001110000000000000000000000000000011100000000000000000000000000000111000000000000000000000000001001110
0111000000000000000000000000000001110000000000000000000000000000000000000000000000000000000000000111000000000000000000000000000001110000000000000000000000000000011100000000000000000000000000000111000000000000000000000000001001110
0111000000000000000000000000000001110000000000000000000000000000000000000000000000000000000000000111000000000000000000000000000001110000000000000000000000000000011100000000000000000000000000000111000000000000000000000000001001110
0111000000000000000000000000000001110000000000000000000000000000000000000000000000000000000000000111000000000000000000000000000001110000000000000000000000000000011100000000000000000000000000000111000000000000000000000000001001110
0111000000000000000000000000000001110000000000000000000000000000000000000000000000000000000000000111000000000000000000000000000001110000000000000000000000000000011100000000000000000000000000000111000000000000000000000000001001110
0111000000000000000000000000000001110000000000000000000000000000000000000000000000000000000000000111000000000000000000000000000001110000000000000000000000000000011100000000000000000000000000000111000000000000000000000000001001110
0111000000000000000000000000000001110000000000000000000000000000000000000000000000000000000000000111000000000000000000000000000001110000000000000000000000000000011100000000000000000000000000000111000000000000000000000000001001110
0111000000000000000000000000000001110000000000000000000000000000000000000000000000000000000000000111000000000000000000000000000001110000000000000000000000000000011100000000000000000000000000000111000000000000000000000000001001110
0111000000000000000000000000000001110000000000000000000000000000000000000000000000000000000000000111000000000000000000000000000001110000000000000000000000000000011100000000000000000000000000000111000000000000000000000000001001110
0111000000000000000000000000000001110000000000000000000000000000000000000000000000000000000000000111000000000000000000000000000001110000000000000000000000000000011100000000000000000000000000000111000000000000000000000000001001110
0111000000000000000000000000000001110000000000000000000000000000000000000000000000000000000000000111000000000000000000000000000001110000000000000000000000000000011100000000000000000000000000000111000000000000000000000000001001110
0111000000000000000000000000000001110000000000000000000000000000000000000000000000000000000000000111000000000000000000000000000001110000000000000000000000000000011100000000000000000000000000000111000000000000000000000000001001110
0111000000000000000000000000000001110000000000000000000000000000000000000000000000000000000000000111000000000000000000000000000001110000000000000000000000000000011100000000000000000000000000000111000000000000000000000000001001110
0111000000000000000000000000000001110000000000000000000000000000000000000000000000000000000000000111000000000000000000000000000001110000000000000000000000000000011100000000000000000000000000000111000000000000000000000000001001110
0111000000000000000000000000000001110000000000000000000000000000000000000000000000000000000000000111000000000000000000000000000001110000000000000000000000000000011100000000000000000000000000000111000000000000000000000000001001110
0111000000000000000000000000000001110000000000000000000000000000000000000000000000000000000000000111000000000000000000000000000001110000000000000000000000000000011100000000000000000000000000000111000000000000000000000000001001110
0111000000000000000000000000000001110000000000000000000000000000000000000000000000000000000000000111000000000000000000000000000001110000000000000000000000000000011100000000000000000000000000000111000000000000000000000000001001110
0111000000000000000000000000000001110000000000000000000000000000000000000000000000000000000000000111000000000000000000000000000001110000000000000000000000000000011100000000000000000000000000000111000000000000000000000000001001110
0111000000000000000000000000000001110000000000000000000000000000000000000000000000000000000000000111000000000000000000000000000001110000000000000000000000000000011100000000000000000000000000000111000000000000000000000000001001110
0111000000000000000000000000000001110000000000000000000000000000000000000000000000000000000000000111000000000000000000000000000001110000000000000000000000000000011100000000000000000000000000000111000000000000000000000000001001110
0111000000000000000000000000000001110000000000000000000000000000000000000000000000000000000000000111000000000000000000000000000001110000000000000000000000000000011100000000000000000000000000000111000000000000000000000000001001110
0111000000000000000000000000000001110000000000000000000000000000000000000000000000000000000000000111000000000000000000000000000001110000000000000000000000000000011100000000000000000000000000000111000000000000000000000000001001110
0111000000000000000000000000000001110000000000000000000000000000000000000000000000000000000000000111000000000000000000000000000001110000000000000000000000000000011100000000000000000000000000000111000000000000000000000000001001110
0111000000000000000000000000000001110000000000000000000000000000000000000000000000000000000000000111000000000000000000000000000001110000000000000000000000000000011100000000000000000000000000000111000000000000000000000000001001110
0111000000000000000000000000000001110000000000000000000000000000000000000000000000000000000000000111000000000000000000000000000001110000000000000000000000000000011100000000000000000000000000000111000000000000000000000000001001110
0111000000000000000000000000000001110000000000000000000000000000000000000000000000000000000000000111000000000000000000000000000001110000000000000000000000000000011100000000000000000000000000000111000000000000000000000000001001110
0111000000000000000000000000000001110000000000000000000000000000000000000000000000000000000000000111000000000000000000000000000001110000000000000000000000000000011100000000000000000000000000000111000000000000000000000000001001110
0111000000000000000000000000000001111111111111111111111111111111110000000000000000000000000000000111111111111111111111111111111111110000000000000000000000000000011100000000000000000000000000000111000000000000000000000000001001110
0111000000000000000000000000000000111111111111111111111111111111111100000000000000000000000000000011111111111111111111111111111111110000000000000000000000000000001000000000000000000000000000000111000000000000000000000000001100100
0111000000000000000000000000000000011111111111111111111111111111111100000000000000000000000000000001111111111111111111111111111111110000000000000000000000000000000000000000000000000000000000000111000000000000000000000000000111100
0111000000000000000000000000000000000000000000000000000000000000011100000000000000000000000000000000000000000000000000000000000001110000000000000000000000000000000000000000000000000000000000000111000000000000000000000000000000100
0111000000000000000000000000000000000000000000000000000000000000011100000000000000000000000000000000000000000000000000000000000001110000000000000000000000000000000000000000000000000000000000000111000000000000000000000000000000100
0111000000000000000000000000000000000000000000000000000000000000011100000000000000000000000000000000000000000000000000000000000001110000000000000000000000000000000000000000000000000000000000000111000000000000000000000000000000100
0111000000000000000000000000000000000000000000000000000000000000011100000000000000000000000000000000000000000000000000000000000001110000000000000000000000000000000000000000000000000000000000000111000000000000000000000000000000100
0111000000000000000000000000000000000000000000000000000000000000011100000000000000000000000000000000000000000000000000000000000001110000000000000000000000000000000000000000000000000000000000000111000000000000000000000000000000100
0111000000000000000000000000000000000000000000000000000000000000011100000000000000000000000000000000000000000000000000000000000001110000000000000000000000000000000000000000000000000000000000000111000000000000000000000000000000100
0111000000000000000000000000000000000000000000000000000000000000011100000000000000000000000000000000000000000000000000000000000001110000000000000000000000000000000000000000000000000000000000000111000000000000000000000000000000100
0111000000000000000000000000000000000000000000000000000000000000011100000000000000000000000000000000000000000000000000000000000001110000000000000000000000000000000000000000000000000000000000000111000000000000000000000000000000100
0111000000000000000000000000000000000000000000000000000000000000011100000000000000000000000000000000000000000000000000000000000001110000000000000000000000000000000000000000000000000000000000000111000000000000000000000000000000100
0111000000000000000000000000000000000000000000000000000000000000011100000000000000000000000000000000000000000000000000000000000001110000000000000000000000000000000000000000000000000000000000000111000000000000000000000000000000100
0111000000000000000000000000000000000000000000000000000000000000011100000000000000000000000000000000000000000000000000000000000001110000000000000000000000000000000000000000000000000000000000000111000000000000000000000000000000100
0111000000000000000000000000000000000000000000000000000000000000011100000000000000000000000000000000000000000000000000000000000001110000000000000000000000000000000000000000000000000000000000000111000000000000000000000000000000100
0111000000000000000000000000000000000000000000000000000000000000011100000000000000000000000000000000000000000000000000000000000001110000000000000000000000000000000000000000000000000000000000000111000000000000000000000000000000100
0111000000000000000000000000000000000000000000000000000000000000011100000000000000000000000000000000000000000000000000000000000001110000000000000000000000000000000000000000000000000000000000000111000000000000000000000000000000100
0111000000000000000000000000000000000000000000000000000000000000011100000000000000000000000000000000000000000000000000000000000001110000000000000000000000000000000000000000000000000000000000000111000000000000000000000000000000100
0111000000000000000000000000000000000000000000000000000000000000011100000000000000000000000000000000000000000000000000000000000001110000000000000000000000000000000000000000000000000000000000000111000000000000000000000000000000100
0111000000000000000000000000000000000000000000000000000000000000011100000000000000000000000000000000000000000000000000000000000001110000000000000000000000000000000000000000000000000000000000000111000000000000000000000000000000100
0111000000000000000000000000000000000000000000000000000000000000011100000000000000000000000000000000000000000000000000000000000001110000000000000000000000000000000000000000000000000000000000000111000000000000000000000000000000100
0111000000000000000000000000000000000000000000000000000000000000011100000000000000000000000000000000000000000000000000000000000001110000000000000000000000000000000000000000000000000000000000000111000000000000000000000000000000100
0111000000000000000000000000000000000000000000000000000000000000011100000000000000000000000000000000000000000000000000000000000001110000000000000000000000000000000000000000000000000000000000000111000000000000000000000000000000100
0111000000000000000000000000000000000000000000000000000000000000011100000000000000000000000000000000000000000000000000000000000001110000000000000000000000000000000000000000000000000000000000000111000000000000000000000000000000100
0111000000000000000000000000000000000000000000000000000000000000011100000000000000000000000000000000000000000000000000000000000001110000000000000000000000000000000000000000000000000000000000000111000000000000000000000000000000100
0111000000000000000000000000000000000000000000000000000000000000011100000000000000000000000000000000000000000000000000000000000001110000000000000000000000000000000000000000000000000000000000000111000000000000000000000000000000000
0111000000000000000000000000000000000000000000000000000000000000011100000000000000000000000000000000000000000000000000000000000001110000000000000000000000000000000000000000000000000000000000000111000000000000000000000000000000000
0111000000000000000000000000000000000000000000000000000000000000011100000000000000000000000000000000000000000000000000000000000001110000000000000000000000000000000000000000000000000000000000000111000000000000000000000000000000000
0111000000000000000000000000000000000000000000000000000000000000011100000000000000000000000000000000000000000000000000000000000001110000000000000000000000000000000000000000000000000000000000000111000000000000000000000000000000000
0111000000000000000000000000000000000000000000000000000000000000011100000000000000000000000000000000000000000000000000000000000001110000000000000000000000000000000000000000000000000000000000000111000000000000000000000000000000000
0111000000000000000000000000000000000000000000000000000000000000011100000000000000000000000000000000000000000000000000000000000001110000000000000000000000000000000000000000000000000000000000000111000000000000000000000000000000000
0111000000000000000000000000000000000000000000000000000000000000011100000000000000000000000000000000000000000000000000000000000001110000000000000000000000000000000000000000000000000000000000000111000000000000000000000000000000000
0111111111111111111111111111111111111111111111111111111111111111111111111111111111111111111111111111111111111111111111111111111111111111111111111111111111111111111111111111111111111111111111111111111111111111111111111111111111000
0011111111111111111111111111111111111111111111111111111111111111111111111111111111111111111111111111111111111111111111111111111111111111111111111111111111111111111111111111111111111111111111111111111111111111111111111111111111100
0001111111111111111111111111111111111111111111111111111111111111111111111111111111111111111111111111111111111111111111111111111111111111111111111111111111111111111111111111111111111111111111111111111111111111111111111111111111000
0000000000000000000000000000000000000000000000000000000000000000000000000000000000000000000000000000000000000000000000000000000000000000000000000000000000000000000000000000000000000000000000000000000000000000000000000000000000000
